<?xml version="1.0" encoding="utf-8"?>
<!-- Generator: Adobe Illustrator 16.0.3, SVG Export Plug-In . SVG Version: 6.00 Build 0)  -->
<!DOCTYPE svg PUBLIC "-//W3C//DTD SVG 1.1//EN" "http://www.w3.org/Graphics/SVG/1.1/DTD/svg11.dtd">
<svg version="1.1" id="Ebene_1" xmlns="http://www.w3.org/2000/svg" xmlns:xlink="http://www.w3.org/1999/xlink" x="0px" y="0px"
	 width="138px" height="137px" viewBox="0 0 138 137" enable-background="new 0 0 138 137" xml:space="preserve">
<g>
	<path fill="#3E7A9D" d="M74.082,134.59c-3.691,0-7.383,0-11.089,0c-1.96-2.115-2.47-4.902-3.437-7.475
		c-1.908-5.075-7.939-6.746-12.202-3.352c-0.202,0.154-0.405,0.326-0.597,0.512c-6.61,6.371-6.921,4.725-14.589,0.24
		c-1.581-0.918-1.878-2.455-1.645-4.131c0.219-1.564,0.591-3.103,0.865-4.666c1.163-6.543-3.289-11.009-9.813-9.85
		c-0.263,0.049-0.518,0.104-0.774,0.156c-6.693,1.244-10.284-1.154-11.813-7.827c-0.364-1.562,0.056-2.849,0.959-4.063
		c1.03-1.371,2.229-2.601,3.28-3.955C17,85.314,15.541,79.905,9.783,77.534c-7.428-3.06-7.28-3.06-7.438-11.104
		c-0.056-3.028,0.922-4.744,3.812-5.484c1.143-0.286,2.221-0.82,3.323-1.259c6.399-2.561,7.719-7.949,3.211-13.24
		c-0.94-1.109-1.752-2.314-2.708-3.402c-1.506-1.704-1.686-3.523-0.554-5.452c4.981-8.507,3.118-8.078,12.232-6.264
		c3.54,0.7,6.076,0.083,8.414-2.632c1.414-1.653,2.146-3.25,1.593-5.373c-0.165-0.64-0.27-1.293-0.381-1.942
		c-1.287-7.508-0.03-9.677,7.179-12.538c1.341-0.536,2.54-0.576,3.718,0.309c1.479,1.108,2.957,2.201,4.354,3.415
		c5.229,4.532,10.711,3.166,13.371-3.181c0.967-2.313,0.825-5.337,3.676-6.646c3.242-0.021,6.483-0.005,9.722-0.005
		c3.09,0.74,3.139,3.672,4.014,5.864c2.796,7.083,7.789,8.54,13.729,3.854c1.032-0.819,2.019-1.703,3.031-2.542
		c1.721-1.422,3.565-1.573,5.532-0.608c0.6,0.288,1.158,0.633,1.734,0.962c5.945,3.397,5.983,3.402,4.801,10.17
		c-0.558,3.193-0.948,6.07,1.976,8.663c2.181,1.932,4.203,3.06,7.063,2.282c0.385-0.108,0.787-0.123,1.18-0.186
		c7.596-1.279,8.896-0.512,11.763,6.668c0.718,1.787,0.419,3.314-0.563,4.862c-0.996,1.564-2.313,2.875-3.479,4.306
		c-3.813,4.712-2.118,10.452,3.577,12.624c2.57,0.983,5.934,0.891,6.997,4.364c0.006,3.25,0.014,6.487,0,9.729
		c-1.294,2.594-4.056,2.688-6.294,3.531c-6.727,2.541-8.311,8.121-3.658,13.437c0.868,0.998,1.632,2.077,2.466,3.091
		c1.617,1.965,1.798,3.995,0.563,6.217c-0.836,1.502-1.732,2.957-2.617,4.425c-1.059,1.776-2.553,2.587-4.641,2.204
		c-1.555-0.273-3.131-0.445-4.687-0.729c-6.792-1.243-10.8,2.72-9.771,9.613c0.183,1.173,0.41,2.333,0.604,3.5
		c0.492,2.917-0.362,5.168-3.071,6.623c-1.393,0.75-2.802,1.47-4.156,2.292c-1.851,1.124-3.482,0.837-5.033-0.578
		c-1.17-1.063-2.434-2.016-3.663-3.009c-5.353-4.327-10.972-2.77-13.208,3.668C76.68,130.379,76.184,132.898,74.082,134.59z"/>
	<path fill="#B5B4B4" d="M74.082,2.331c-0.005,0.273-0.014,0.552-0.023,0.826c-3.666,0.017-7.332,0.028-10.994,0.05
		c-0.026-0.296-0.043-0.59-0.071-0.876C66.699,2.331,70.391,2.331,74.082,2.331z"/>
	<path fill="#E6E6E5" d="M135.074,74.395c-0.305-0.014-0.602-0.021-0.896-0.047c0.036-3.68,0.072-7.355,0.111-11.042
		c0.259-0.008,0.521-0.008,0.785,0.006C135.074,67.004,135.074,70.693,135.074,74.395z"/>
	<path fill="#FFFFFF" d="M68.622,27.224c23.354,0.031,42.424,19.211,42.341,42.614c-0.072,23.344-19.309,42.355-42.725,42.23
		c-23.147-0.125-42.104-19.196-42.12-42.389C26.103,46.303,45.232,27.198,68.622,27.224z"/>
</g>
<rect x="64.842" y="51.226" fill="#3E7A9D" width="7.526" height="39.34"/>
<rect x="80.896" y="51.226" fill="#3E7A9D" width="7.524" height="39.34"/>
<rect x="49.015" y="51.226" fill="#3E7A9D" width="7.525" height="39.34"/>
</svg>
