<?xml version="1.0" encoding="utf-8"?>
<!-- Generator: Adobe Illustrator 16.0.3, SVG Export Plug-In . SVG Version: 6.00 Build 0)  -->
<!DOCTYPE svg PUBLIC "-//W3C//DTD SVG 1.1//EN" "http://www.w3.org/Graphics/SVG/1.1/DTD/svg11.dtd">
<svg version="1.1" id="Ebene_1" xmlns="http://www.w3.org/2000/svg" xmlns:xlink="http://www.w3.org/1999/xlink" x="0px" y="0px"
	 width="137px" height="136px" viewBox="0 0 137 136" enable-background="new 0 0 137 136" xml:space="preserve">
<g>
	<path fill="#3E7A9D" d="M73.98,134.753c-3.692,0-7.383,0-11.085,0c-1.963-2.119-2.474-4.903-3.44-7.478
		c-1.908-5.078-7.94-6.745-12.201-3.352c-0.204,0.159-0.406,0.326-0.597,0.514c-6.61,6.371-6.922,4.727-14.592,0.238
		c-1.579-0.917-1.876-2.453-1.643-4.13c0.219-1.567,0.592-3.104,0.865-4.666c1.164-6.546-3.288-11.01-9.813-9.848
		c-0.264,0.05-0.518,0.102-0.774,0.149c-6.693,1.252-10.284-1.146-11.813-7.82c-0.362-1.563,0.057-2.856,0.96-4.064
		c1.029-1.376,2.229-2.604,3.281-3.956c3.771-4.864,2.312-10.274-3.445-12.646c-7.428-3.063-7.281-3.064-7.439-11.104
		c-0.056-3.029,0.922-4.749,3.812-5.485c1.143-0.291,2.221-0.824,3.323-1.262c6.4-2.563,7.719-7.951,3.211-13.241
		c-0.94-1.107-1.753-2.313-2.709-3.403c-1.504-1.699-1.685-3.523-0.552-5.45c4.981-8.507,3.118-8.078,12.231-6.262
		c3.541,0.695,6.076,0.079,8.413-2.634c1.415-1.649,2.147-3.253,1.594-5.378c-0.165-0.631-0.271-1.286-0.38-1.934
		c-1.288-7.518-0.032-9.68,7.178-12.545c1.342-0.531,2.54-0.57,3.719,0.31c1.479,1.104,2.956,2.201,4.354,3.42
		c5.229,4.53,10.711,3.165,13.371-3.182c0.969-2.315,0.825-5.332,3.677-6.644c3.239-0.02,6.481-0.011,9.72-0.011
		c3.091,0.739,3.14,3.673,4.015,5.866c2.795,7.08,7.789,8.539,13.729,3.857c1.032-0.822,2.021-1.704,3.03-2.545
		c1.722-1.425,3.567-1.568,5.535-0.609c0.596,0.286,1.157,0.636,1.734,0.96c5.943,3.4,5.982,3.403,4.8,10.167
		c-0.557,3.196-0.948,6.076,1.974,8.667c2.182,1.936,4.205,3.061,7.067,2.277c0.384-0.104,0.784-0.115,1.175-0.177
		c7.6-1.282,8.897-0.517,11.764,6.66c0.719,1.792,0.421,3.32-0.563,4.869c-0.995,1.565-2.313,2.876-3.479,4.305
		c-3.812,4.715-2.116,10.455,3.578,12.622c2.572,0.984,5.933,0.894,6.998,4.37c0.004,3.247,0.015,6.487,0,9.723
		c-1.299,2.593-4.056,2.688-6.295,3.535c-6.725,2.541-8.31,8.119-3.658,13.436c0.867,0.994,1.63,2.074,2.467,3.088
		c1.619,1.967,1.796,3.996,0.563,6.223c-0.836,1.5-1.731,2.957-2.619,4.422c-1.057,1.777-2.551,2.58-4.64,2.201
		c-1.554-0.275-3.131-0.447-4.685-0.728c-6.795-1.245-10.805,2.716-9.771,9.606c0.182,1.174,0.41,2.338,0.604,3.502
		c0.494,2.918-0.364,5.172-3.07,6.627c-1.393,0.75-2.801,1.471-4.157,2.287c-1.851,1.129-3.483,0.842-5.032-0.578
		c-1.172-1.06-2.434-2.013-3.664-3.006c-5.353-4.328-10.972-2.769-13.209,3.672C76.578,130.539,76.081,133.063,73.98,134.753z"/>
	<path fill="#B5B4B4" d="M73.98,2.485c-0.006,0.279-0.017,0.56-0.024,0.841c-3.665,0.006-7.33,0.024-10.993,0.038
		c-0.026-0.293-0.041-0.584-0.067-0.879C66.598,2.485,70.288,2.485,73.98,2.485z"/>
	<path fill="#E6E6E5" d="M134.973,74.561c-0.305-0.013-0.603-0.033-0.896-0.05c0.037-3.678,0.07-7.361,0.113-11.045
		c0.256-0.008,0.521-0.008,0.783,0.007C134.973,67.165,134.973,70.861,134.973,74.561z"/>
	<path fill="#FFFFFF" d="M68.521,27.385C91.876,27.416,110.943,46.6,110.861,70c-0.075,23.345-19.309,42.355-42.728,42.23
		c-23.146-0.123-42.103-19.198-42.119-42.388C26.001,46.462,45.131,27.354,68.521,27.385z"/>
</g>
<rect x="51.014" y="65.53" fill="#3E7A9D" width="33.903" height="18.579"/>
<rect x="40.629" y="71.055" fill="#3E7A9D" width="55.979" height="7.526"/>
<rect x="64.566" y="54.093" fill="#3E7A9D" width="7.526" height="24.488"/>
</svg>
