<?xml version="1.0" encoding="utf-8"?>
<!-- Generator: Adobe Illustrator 16.0.3, SVG Export Plug-In . SVG Version: 6.00 Build 0)  -->
<!DOCTYPE svg PUBLIC "-//W3C//DTD SVG 1.1//EN" "http://www.w3.org/Graphics/SVG/1.1/DTD/svg11.dtd">
<svg version="1.1" id="Ebene_1" xmlns="http://www.w3.org/2000/svg" xmlns:xlink="http://www.w3.org/1999/xlink" x="0px" y="0px"
	 width="141.732px" height="140.945px" viewBox="0 0 141.732 140.945" enable-background="new 0 0 141.732 140.945"
	 xml:space="preserve">
<polyline fill="none" stroke="#000000" stroke-width="10" stroke-miterlimit="10" points="136.441,61.214 136.441,135.828 
	4.188,135.828 4.188,4.903 116.138,4.903 136.441,35.237 136.441,63.88 "/>
<g>
	<path d="M103.396,112.438c0,1.152-0.527,2.135-1.582,2.948c-1.055,0.813-2.312,1.219-3.77,1.219c-1.459,0-2.715-0.406-3.77-1.219
		c-1.055-0.813-1.582-1.796-1.582-2.948s0.527-2.146,1.582-2.979c1.055-0.834,2.311-1.251,3.77-1.251
		c1.458,0,2.715,0.417,3.77,1.251C102.869,110.293,103.396,111.286,103.396,112.438z M103.045,75.21
		c0,1.029-0.43,4.487-1.289,10.372c-0.859,5.886-1.615,11.576-2.266,17.071h-3.047c-0.573-5.495-1.283-11.186-2.129-17.071
		c-0.847-5.885-1.27-9.343-1.27-10.372c0-1.173,0.469-2.16,1.406-2.963s2.135-1.204,3.594-1.204c1.458,0,2.656,0.396,3.594,1.188
		C102.576,73.024,103.045,74.017,103.045,75.21z"/>
</g>
<line stroke="#000000" stroke-width="8" stroke-miterlimit="10" x1="40.004" y1="107.688" x2="107.162" y2="40.53"/>
<g>
	<line x1="46.091" y1="22.795" x2="46.091" y2="70.764"/>
	<g>
		<rect x="41.396" y="22.795" width="9.389" height="25.06"/>
		<g>
			<polygon points="30.172,43.196 46.091,70.764 62.01,43.196 			"/>
		</g>
	</g>
</g>
<g>
</g>
<g>
</g>
<g>
</g>
<g>
</g>
<g>
</g>
<g>
</g>
</svg>
