<?xml version="1.0" encoding="utf-8"?>
<!-- Generator: Adobe Illustrator 16.0.3, SVG Export Plug-In . SVG Version: 6.00 Build 0)  -->
<!DOCTYPE svg PUBLIC "-//W3C//DTD SVG 1.1//EN" "http://www.w3.org/Graphics/SVG/1.1/DTD/svg11.dtd">
<svg version="1.1" id="Ebene_1" xmlns="http://www.w3.org/2000/svg" xmlns:xlink="http://www.w3.org/1999/xlink" x="0px" y="0px"
	 width="141.599px" height="141.301px" viewBox="0 0 141.599 141.301" enable-background="new 0 0 141.599 141.301"
	 xml:space="preserve">
<path d="M128.985,141.301H0V13.521h108.461l20.523,30.661V141.301z M9.067,132.234h110.849V46.937L103.62,22.588H9.067V132.234z"/>
<polygon points="141.598,58.009 132.532,58.009 132.532,40.653 111.682,9.067 21.682,9.067 21.682,19.646 12.614,19.646 12.614,0 
	116.561,0 141.598,37.931 "/>
<polygon points="141.598,130.5 120.415,130.5 120.415,121.434 132.532,121.434 132.532,54.685 141.598,54.685 "/>
<path fill="#010202" d="M62.851,114.471c-17.766,0-32.22-16.729-32.22-37.291c0-5.535,1.021-10.859,3.031-15.83
	c5.275-13.038,16.733-21.463,29.188-21.463c17.766,0,32.218,16.729,32.218,37.292C95.069,97.742,80.616,114.471,62.851,114.471z
	 M62.851,48.955c-8.742,0-16.899,6.201-20.783,15.797c-1.572,3.883-2.369,8.064-2.369,12.428c0,15.563,10.386,28.223,23.152,28.223
	c12.766,0,23.152-12.66,23.152-28.223C86.003,61.616,75.616,48.955,62.851,48.955z"/>
<rect x="58.463" y="39.999" transform="matrix(0.0024 1 -1 0.0024 127.9797 1.9809)" fill="#010202" width="9.068" height="50.266"/>
<rect x="58.317" y="63.852" fill="#010202" width="9.067" height="46.086"/>
<rect x="33.577" y="44.817" transform="matrix(0.7575 0.6529 -0.6529 0.7575 41.9373 -14.1905)" fill="#010202" width="12.983" height="9.067"/>
<rect x="84.218" y="43.813" transform="matrix(0.6063 0.7953 -0.7953 0.6063 76.216 -50.1478)" fill="#010202" width="9.067" height="16.164"/>
<rect x="20.711" y="69.309" fill="#010202" width="14.249" height="9.066"/>
<rect x="90.055" y="69.309" fill="#010202" width="14.249" height="9.066"/>
<rect x="20.711" y="82.391" fill="#010202" width="14.249" height="9.066"/>
<rect x="90.055" y="82.391" fill="#010202" width="14.249" height="9.066"/>
<g>
</g>
<g>
</g>
<g>
</g>
<g>
</g>
<g>
</g>
<g>
</g>
</svg>
