<?xml version="1.0" encoding="utf-8"?>
<!-- Generator: Adobe Illustrator 16.0.3, SVG Export Plug-In . SVG Version: 6.00 Build 0)  -->
<!DOCTYPE svg PUBLIC "-//W3C//DTD SVG 1.1//EN" "http://www.w3.org/Graphics/SVG/1.1/DTD/svg11.dtd">
<svg version="1.1" id="Ebene_1" xmlns="http://www.w3.org/2000/svg" xmlns:xlink="http://www.w3.org/1999/xlink" x="0px" y="0px"
	 width="141.732px" height="140.945px" viewBox="0 0 141.732 140.945" enable-background="new 0 0 141.732 140.945"
	 xml:space="preserve">
<polyline fill="none" stroke="#3E7A9D" stroke-width="10" stroke-miterlimit="10" points="136.441,61.214 136.441,135.828 
	4.188,135.828 4.188,4.903 116.138,4.903 136.441,35.237 136.441,63.88 "/>
<g>
	<path fill="#3E7A9D" d="M103.396,112.438c0,1.151-0.527,2.135-1.582,2.947c-1.056,0.813-2.313,1.22-3.771,1.22
		c-1.459,0-2.715-0.406-3.77-1.22c-1.055-0.813-1.582-1.796-1.582-2.947c0-1.152,0.527-2.146,1.582-2.979
		c1.055-0.834,2.311-1.251,3.77-1.251c1.458,0,2.715,0.417,3.771,1.251C102.869,110.293,103.396,111.286,103.396,112.438z
		 M103.045,75.21c0,1.029-0.43,4.487-1.289,10.372c-0.858,5.886-1.614,11.576-2.266,17.071h-3.047
		c-0.573-5.495-1.283-11.187-2.129-17.071c-0.848-5.885-1.271-9.343-1.271-10.372c0-1.173,0.47-2.16,1.406-2.963
		c0.938-0.803,2.135-1.204,3.594-1.204c1.458,0,2.656,0.396,3.595,1.188C102.576,73.024,103.045,74.017,103.045,75.21z"/>
</g>
<line fill="none" stroke="#3E7A9D" stroke-width="8" stroke-miterlimit="10" x1="40.004" y1="107.688" x2="107.162" y2="40.53"/>
<polygon fill="#3E7A9D" points="50.785,43.196 50.785,22.795 41.396,22.795 41.396,43.196 30.172,43.196 46.091,70.764 
	62.01,43.196 "/>
</svg>
