<?xml version="1.0" encoding="utf-8"?>
<!-- Generator: Adobe Illustrator 16.0.3, SVG Export Plug-In . SVG Version: 6.00 Build 0)  -->
<!DOCTYPE svg PUBLIC "-//W3C//DTD SVG 1.1//EN" "http://www.w3.org/Graphics/SVG/1.1/DTD/svg11.dtd">
<svg version="1.1" id="Ebene_1" xmlns="http://www.w3.org/2000/svg" xmlns:xlink="http://www.w3.org/1999/xlink" x="0px" y="0px"
	 width="141.6px" height="141.301px" viewBox="0 0 141.6 141.301" enable-background="new 0 0 141.6 141.301" xml:space="preserve">
<path fill="#3E7A9D" d="M128.985,141.301H0V13.521h108.461l20.523,30.661L128.985,141.301L128.985,141.301z M9.067,132.234h110.849
	V46.937L103.62,22.588H9.067V132.234z"/>
<polygon fill="#3E7A9D" points="141.598,58.009 132.532,58.009 132.532,40.653 111.682,9.067 21.682,9.067 21.682,19.646 
	12.614,19.646 12.614,0 116.561,0 141.598,37.931 "/>
<polygon fill="#3E7A9D" points="141.598,130.5 120.415,130.5 120.415,121.434 132.532,121.434 132.532,54.685 141.598,54.685 "/>
<path fill="#3E7A9D" d="M62.851,114.471c-17.767,0-32.221-16.729-32.221-37.291c0-5.535,1.021-10.859,3.031-15.83
	c5.275-13.038,16.733-21.463,29.188-21.463c17.766,0,32.218,16.729,32.218,37.292C95.069,97.742,80.616,114.471,62.851,114.471z
	 M62.851,48.955c-8.742,0-16.899,6.201-20.783,15.797c-1.572,3.883-2.369,8.064-2.369,12.428c0,15.563,10.386,28.223,23.152,28.223
	c12.766,0,23.151-12.659,23.151-28.223S75.616,48.955,62.851,48.955z"/>
<rect x="58.465" y="40.001" transform="matrix(-0.0024 -1 1 -0.0024 -1.9861 128.2872)" fill="#3E7A9D" width="9.068" height="50.266"/>
<rect x="58.317" y="63.852" fill="#3E7A9D" width="9.066" height="46.085"/>
<rect x="33.577" y="44.82" transform="matrix(-0.7574 -0.6529 0.6529 -0.7574 38.1962 112.896)" fill="#3E7A9D" width="12.983" height="9.067"/>
<rect x="84.221" y="43.818" transform="matrix(-0.6063 -0.7953 0.7953 -0.6063 101.287 153.9484)" fill="#3E7A9D" width="9.067" height="16.165"/>
<rect x="20.711" y="69.309" fill="#3E7A9D" width="14.249" height="9.066"/>
<rect x="90.055" y="69.309" fill="#3E7A9D" width="14.249" height="9.066"/>
<rect x="20.711" y="82.391" fill="#3E7A9D" width="14.249" height="9.066"/>
<rect x="90.055" y="82.391" fill="#3E7A9D" width="14.249" height="9.066"/>
</svg>
