<?xml version="1.0" encoding="utf-8"?>
<!-- Generator: Adobe Illustrator 16.0.3, SVG Export Plug-In . SVG Version: 6.00 Build 0)  -->
<!DOCTYPE svg PUBLIC "-//W3C//DTD SVG 1.1//EN" "http://www.w3.org/Graphics/SVG/1.1/DTD/svg11.dtd">
<svg version="1.1" id="Ebene_1" xmlns="http://www.w3.org/2000/svg" xmlns:xlink="http://www.w3.org/1999/xlink" x="0px" y="0px"
	 width="173.129px" height="106.157px" viewBox="0 0 173.129 106.157" enable-background="new 0 0 173.129 106.157"
	 xml:space="preserve">
<rect x="77.825" fill="#3E7A9D" width="31.042" height="106.157"/>
<rect x="107.488" y="34.178" fill="#3E7A9D" width="31.043" height="71.979"/>
<rect x="64.891" y="18.541" fill="#3E7A9D" width="31.042" height="87.616"/>
<rect x="142.087" y="71.485" fill="#3E7A9D" width="31.042" height="34.672"/>
<rect y="71.485" fill="#3E7A9D" width="31.042" height="34.672"/>
<rect x="29.158" y="62.349" fill="#3E7A9D" width="31.042" height="43.81"/>
<rect x="37.873" y="81.727" fill="#FFFFFF" width="13.02" height="11.132"/>
<rect x="66.326" y="81.727" fill="#FFFFFF" width="13.02" height="11.132"/>
<rect x="94.346" y="53.708" fill="#FFFFFF" width="13.021" height="11.131"/>
<rect x="132.473" y="18.541" fill="#3E7A9D" width="22.941" height="87.616"/>
<rect x="50.364" y="36.813" fill="#3E7A9D" width="15.521" height="69.344"/>
<rect x="17.352" y="53.078" fill="#3E7A9D" width="15.521" height="53.079"/>
<rect x="62.513" y="47.513" fill="#FFFFFF" width="13.02" height="11.132"/>
<rect x="126.727" y="47.513" fill="#FFFFFF" width="13.021" height="11.132"/>
<rect x="126.727" y="76.161" fill="#FFFFFF" width="13.021" height="11.131"/>
<rect x="151.098" y="81.727" fill="#FFFFFF" width="13.021" height="11.132"/>
<rect x="100.295" y="76.161" fill="#FFFFFF" width="13.02" height="11.131"/>
</svg>
