<?xml version="1.0" encoding="utf-8"?>
<!-- Generator: Adobe Illustrator 16.0.3, SVG Export Plug-In . SVG Version: 6.00 Build 0)  -->
<!DOCTYPE svg PUBLIC "-//W3C//DTD SVG 1.1//EN" "http://www.w3.org/Graphics/SVG/1.1/DTD/svg11.dtd">
<svg version="1.1" id="Ebene_1" xmlns="http://www.w3.org/2000/svg" xmlns:xlink="http://www.w3.org/1999/xlink" x="0px" y="0px"
	 width="170.253px" height="132.859px" viewBox="0 0 170.253 132.859" enable-background="new 0 0 170.253 132.859"
	 xml:space="preserve">
<rect x="3.623" y="97.949" fill="none" stroke="#3E7A9D" stroke-width="6" stroke-miterlimit="10" width="36.346" height="32.612"/>
<rect x="66.386" y="97.561" fill="none" stroke="#3E7A9D" stroke-width="6" stroke-miterlimit="10" width="36.346" height="32.613"/>
<polygon fill="#3E7A9D" points="151.912,64.177 151.912,64.17 87.427,64.17 87.427,35.052 81.427,35.052 81.427,64.17 17.851,64.17 
	17.851,68.324 17.851,70.17 17.851,97.406 24.851,97.406 24.851,70.17 81.427,70.17 81.427,97.948 87.427,97.948 87.427,70.17 
	145.935,70.17 145.935,102.47 151.935,102.47 151.935,64.177 "/>
<rect x="66.386" y="3.156" fill="none" stroke="#3E7A9D" stroke-width="6" stroke-miterlimit="10" width="36.346" height="32.612"/>
<rect x="127.617" y="94.602" fill="#3E7A9D" width="42.637" height="38.258"/>
</svg>
