<?xml version="1.0" encoding="utf-8"?>
<!-- Generator: Adobe Illustrator 16.0.3, SVG Export Plug-In . SVG Version: 6.00 Build 0)  -->
<!DOCTYPE svg PUBLIC "-//W3C//DTD SVG 1.1//EN" "http://www.w3.org/Graphics/SVG/1.1/DTD/svg11.dtd">
<svg version="1.1" id="Ebene_1" xmlns="http://www.w3.org/2000/svg" xmlns:xlink="http://www.w3.org/1999/xlink" x="0px" y="0px"
	 width="148.781px" height="148.781px" viewBox="0 0 148.781 148.781" enable-background="new 0 0 148.781 148.781"
	 xml:space="preserve">
<path fill="#3E7A9D" d="M132.261,144.981H3.277V17.202h108.462l20.522,30.661V144.981z M12.344,135.914h110.85V50.617
	l-16.297-24.349H12.344V135.914z"/>
<polygon fill="#3E7A9D" points="144.875,61.689 135.808,61.689 135.808,44.333 114.958,12.748 24.958,12.748 24.958,23.326 
	15.891,23.326 15.891,3.68 119.837,3.68 144.875,41.61 "/>
<polygon fill="#3E7A9D" points="144.875,134.181 123.691,134.181 123.691,125.113 135.808,125.113 135.808,58.365 144.875,58.365 
	"/>
<rect x="27.642" y="44.497" fill="#3E7A9D" width="26.371" height="9.066"/>
<rect x="60.798" y="44.497" fill="#3E7A9D" width="26.371" height="9.066"/>
<rect x="27.642" y="65.703" fill="#3E7A9D" width="71.032" height="9.067"/>
<rect x="27.642" y="88.608" fill="#3E7A9D" width="52.74" height="9.067"/>
<rect x="27.642" y="111.608" fill="#3E7A9D" width="71.032" height="9.067"/>
</svg>
