<?xml version="1.0" encoding="utf-8"?>
<!-- Generator: Adobe Illustrator 16.0.3, SVG Export Plug-In . SVG Version: 6.00 Build 0)  -->
<!DOCTYPE svg PUBLIC "-//W3C//DTD SVG 1.1//EN" "http://www.w3.org/Graphics/SVG/1.1/DTD/svg11.dtd">
<svg version="1.1" id="Ebene_1" xmlns="http://www.w3.org/2000/svg" xmlns:xlink="http://www.w3.org/1999/xlink" x="0px" y="0px"
	 width="150.394px" height="148.818px" viewBox="0 0 150.394 148.818" enable-background="new 0 0 150.394 148.818"
	 xml:space="preserve">
<path fill="none" stroke="#000000" stroke-width="10" stroke-miterlimit="10" d="M142.541,74.528
	c0,37.452-30.36,67.813-67.813,67.813c-37.453,0-67.813-30.361-67.813-67.813c0-37.449,30.36-67.812,67.813-67.812
	C112.181,6.717,142.541,37.079,142.541,74.528z"/>
<path fill="none" stroke="#000000" stroke-width="6" stroke-miterlimit="10" d="M66.075,12.559"/>
<path fill="none" stroke="#000000" stroke-width="6" stroke-miterlimit="10" d="M69.933,143.419"/>
<path fill="none" stroke="#000000" stroke-width="6" stroke-miterlimit="10" d="M69.933,3.847
	c-9.904,14.285-16.518,40.107-16.518,69.59c0,29.486,6.614,55.307,16.518,69.593"/>
<path fill="none" stroke="#000000" stroke-width="6" stroke-miterlimit="10" d="M80.659,143.029
	c9.904-14.286,16.518-40.106,16.518-69.591S90.563,18.132,80.659,3.847"/>
<path fill="none" stroke="#000000" stroke-width="6" stroke-miterlimit="10" d="M15.015,99.895
	c12.396,8.594,34.803,14.333,60.387,14.333c25.585,0,47.993-5.739,60.388-14.333"/>
<path fill="none" stroke="#000000" stroke-width="6" stroke-miterlimit="10" d="M8.436,65.977
	c13.747,9.532,38.595,15.896,66.966,15.896c28.372,0,53.222-6.364,66.968-15.896"/>
<path fill="none" stroke="#000000" stroke-width="6" stroke-miterlimit="10" d="M30.367,28.52c9.2,9.738,25.829,16.24,44.816,16.24
	c18.988,0,35.616-6.502,44.817-16.24"/>
<g>
</g>
<g>
</g>
<g>
</g>
<g>
</g>
<g>
</g>
<g>
</g>
</svg>
