<?xml version="1.0" encoding="utf-8"?>
<!-- Generator: Adobe Illustrator 16.0.3, SVG Export Plug-In . SVG Version: 6.00 Build 0)  -->
<!DOCTYPE svg PUBLIC "-//W3C//DTD SVG 1.1//EN" "http://www.w3.org/Graphics/SVG/1.1/DTD/svg11.dtd">
<svg version="1.1" id="Ebene_1" xmlns="http://www.w3.org/2000/svg" xmlns:xlink="http://www.w3.org/1999/xlink" x="0px" y="0px"
	 width="150.395px" height="148.818px" viewBox="0 0 150.395 148.818" enable-background="new 0 0 150.395 148.818"
	 xml:space="preserve">
<path fill="none" stroke="#3E7A9D" stroke-width="10" stroke-miterlimit="10" d="M142.541,74.528
	c0,37.452-30.359,67.813-67.813,67.813S6.915,111.98,6.915,74.528c0-37.449,30.36-67.813,67.813-67.813
	C112.181,6.717,142.541,37.079,142.541,74.528z"/>
<path fill="none" stroke="#000000" stroke-width="6" stroke-miterlimit="10" d="M66.075,12.559"/>
<path fill="none" stroke="#000000" stroke-width="6" stroke-miterlimit="10" d="M69.933,143.419"/>
<path fill="none" stroke="#3E7A9D" stroke-width="6" stroke-miterlimit="10" d="M69.933,3.847
	c-9.904,14.284-16.519,40.106-16.519,69.59c0,29.485,6.614,55.307,16.519,69.593"/>
<path fill="none" stroke="#3E7A9D" stroke-width="6" stroke-miterlimit="10" d="M80.659,143.029
	c9.904-14.286,16.518-40.106,16.518-69.591c0-29.485-6.613-55.307-16.518-69.591"/>
<path fill="none" stroke="#3E7A9D" stroke-width="6" stroke-miterlimit="10" d="M15.015,99.895
	c12.396,8.594,34.803,14.333,60.387,14.333c25.585,0,47.993-5.739,60.388-14.333"/>
<path fill="none" stroke="#3E7A9D" stroke-width="6" stroke-miterlimit="10" d="M8.436,65.977
	c13.747,9.531,38.595,15.896,66.966,15.896c28.372,0,53.222-6.364,66.968-15.896"/>
<path fill="none" stroke="#3E7A9D" stroke-width="6" stroke-miterlimit="10" d="M30.367,28.52
	c9.2,9.737,25.829,16.239,44.816,16.239S110.799,38.258,120,28.52"/>
</svg>
