<?xml version="1.0" encoding="utf-8"?>
<!-- Generator: Adobe Illustrator 16.0.3, SVG Export Plug-In . SVG Version: 6.00 Build 0)  -->
<!DOCTYPE svg PUBLIC "-//W3C//DTD SVG 1.1//EN" "http://www.w3.org/Graphics/SVG/1.1/DTD/svg11.dtd">
<svg version="1.1" id="Ebene_1" xmlns="http://www.w3.org/2000/svg" xmlns:xlink="http://www.w3.org/1999/xlink" x="0px" y="0px"
	 width="180.883px" height="138.583px" viewBox="0 0 180.883 138.583" enable-background="new 0 0 180.883 138.583"
	 xml:space="preserve">
<rect x="5.048" y="5.428" fill="none" stroke="#010202" stroke-width="10" stroke-miterlimit="10" width="171.611" height="128.459"/>
<rect x="5.049" y="8.016" fill="#010202" width="175.834" height="30"/>
<rect x="155.116" y="13.887" fill="#FFFFFF" width="14.129" height="14.129"/>
<g>
	<line fill-rule="evenodd" clip-rule="evenodd" x1="67.766" y1="116.3" x2="111.708" y2="73.382"/>
	<rect x="84.49" y="64.13" transform="matrix(0.6987 0.7154 -0.7154 0.6987 94.8912 -35.623)" width="10.493" height="61.421"/>
</g>
<g>
	<line fill-rule="evenodd" clip-rule="evenodd" x1="110.722" y1="79.785" x2="125.575" y2="88.304"/>
	<rect x="109.587" y="78.798" transform="matrix(0.8674 0.4976 -0.4976 0.8674 57.4806 -47.6441)" width="17.123" height="10.493"/>
</g>
<g>
	<line fill-rule="evenodd" clip-rule="evenodd" x1="135.48" y1="68.559" x2="119.195" y2="89.713"/>
	<rect x="122.089" y="65.789" transform="matrix(0.7924 0.61 -0.61 0.7924 74.7088 -61.2467)" width="10.494" height="26.696"/>
</g>
<g>
	<line fill-rule="evenodd" clip-rule="evenodd" x1="105.34" y1="74.403" x2="96.82" y2="59.55"/>
	<rect x="92.52" y="61.729" transform="matrix(0.4976 0.8674 -0.8674 0.4976 108.8782 -54.0294)" width="17.123" height="10.495"/>
</g>
<g>
	<line fill-rule="evenodd" clip-rule="evenodd" x1="116.565" y1="49.646" x2="95.412" y2="65.932"/>
	<rect x="100.743" y="44.441" transform="matrix(0.61 0.7924 -0.7924 0.61 87.1311 -61.4481)" width="10.491" height="26.697"/>
</g>
<g>
	<line fill-rule="evenodd" clip-rule="evenodd" x1="111.196" y1="116.811" x2="63.615" y2="66.458"/>
	<rect x="52.767" y="86.387" transform="matrix(0.6868 0.7268 -0.7268 0.6868 93.9742 -34.8308)" width="69.277" height="10.494"/>
</g>
<g>
	<polyline fill-rule="evenodd" clip-rule="evenodd" points="88.147,53.983 52.149,88.107 40.947,76.29 67.046,51.547 	"/>
</g>
<g>
</g>
<g>
</g>
<g>
</g>
<g>
</g>
<g>
</g>
<g>
</g>
</svg>
