<?xml version="1.0" encoding="utf-8"?>
<!-- Generator: Adobe Illustrator 16.0.3, SVG Export Plug-In . SVG Version: 6.00 Build 0)  -->
<!DOCTYPE svg PUBLIC "-//W3C//DTD SVG 1.1//EN" "http://www.w3.org/Graphics/SVG/1.1/DTD/svg11.dtd">
<svg version="1.1" id="Ebene_1" xmlns="http://www.w3.org/2000/svg" xmlns:xlink="http://www.w3.org/1999/xlink" x="0px" y="0px"
	 width="180.883px" height="138.583px" viewBox="0 0 180.883 138.583" enable-background="new 0 0 180.883 138.583"
	 xml:space="preserve">
<rect x="5.048" y="5.428" fill="none" stroke="#3E7A9D" stroke-width="10" stroke-miterlimit="10" width="171.611" height="128.459"/>
<rect x="5.049" y="8.016" fill="#3E7A9D" width="175.834" height="30"/>
<rect x="155.116" y="13.887" fill="#FFFFFF" width="14.129" height="14.129"/>
<rect x="59.031" y="89.593" transform="matrix(0.7154 -0.6987 0.6987 0.7154 -40.7254 89.6925)" fill="#3E7A9D" width="61.42" height="10.493"/>
<rect x="109.581" y="78.801" transform="matrix(0.8674 0.4976 -0.4976 0.8674 57.4838 -47.6424)" fill="#3E7A9D" width="17.124" height="10.493"/>
<rect x="113.988" y="73.889" transform="matrix(0.61 -0.7924 0.7924 0.61 -13.0472 131.7641)" fill="#3E7A9D" width="26.695" height="10.495"/>
<rect x="95.834" y="58.415" transform="matrix(0.8674 -0.4976 0.4976 0.8674 -19.9247 59.1767)" fill="#3E7A9D" width="10.495" height="17.123"/>
<rect x="92.643" y="52.543" transform="matrix(0.7924 -0.61 0.61 0.7924 -13.2474 76.653)" fill="#3E7A9D" width="26.697" height="10.491"/>
<rect x="52.767" y="86.383" transform="matrix(0.6868 0.7268 -0.7268 0.6868 93.9731 -34.8313)" fill="#3E7A9D" width="69.275" height="10.494"/>
<g>
	<polyline fill="#3E7A9D" points="88.147,53.983 52.149,88.107 40.947,76.29 67.046,51.547 	"/>
</g>
</svg>
