<?xml version="1.0" encoding="utf-8"?>
<!-- Generator: Adobe Illustrator 16.0.3, SVG Export Plug-In . SVG Version: 6.00 Build 0)  -->
<!DOCTYPE svg PUBLIC "-//W3C//DTD SVG 1.1//EN" "http://www.w3.org/Graphics/SVG/1.1/DTD/svg11.dtd">
<svg version="1.1" id="Ebene_1" xmlns="http://www.w3.org/2000/svg" xmlns:xlink="http://www.w3.org/1999/xlink" x="0px" y="0px"
	 width="210.384px" height="158.268px" viewBox="0 0 210.384 158.268" enable-background="new 0 0 210.384 158.268"
	 xml:space="preserve">
<polyline fill="none" stroke="#000000" stroke-width="10" stroke-miterlimit="10" points="138.173,111.23 138.173,154.007 
	5.92,154.007 5.92,23.082 117.869,23.082 138.173,53.416 138.173,82.059 "/>
<path fill="none" stroke="#000000" stroke-width="10" stroke-miterlimit="10" d="M138.173,79.393"/>
<line fill="none" stroke="#000000" stroke-width="10" stroke-miterlimit="10" x1="32.63" y1="65.09" x2="60.63" y2="65.09"/>
<line fill="none" stroke="#000000" stroke-width="10" stroke-miterlimit="10" x1="69.862" y1="65.09" x2="111.63" y2="65.09"/>
<line fill="none" stroke="#000000" stroke-width="10" stroke-miterlimit="10" x1="32.63" y1="93.076" x2="81.63" y2="93.076"/>
<line fill="none" stroke="#000000" stroke-width="10" stroke-miterlimit="10" x1="32.63" y1="118.649" x2="111.63" y2="118.649"/>
<polyline fill="none" stroke="#000000" stroke-width="10" stroke-miterlimit="10" points="22.401,22.569 22.401,5.902 
	129.351,5.902 154.654,44.236 154.654,75.879 "/>
<polyline fill="none" stroke="#000000" stroke-width="10" stroke-miterlimit="10" points="154.654,106.213 154.654,139.827 
	136.29,139.827 "/>
<g>
	<g>
		<line fill="none" stroke="#000000" stroke-width="10" stroke-miterlimit="10" x1="117.05" y1="94.521" x2="201.6" y2="94.521"/>
		<g>
			<polygon points="174.761,127.648 169.235,121.716 198.491,94.528 169.235,67.333 174.761,61.4 210.384,94.528 			"/>
		</g>
	</g>
</g>
<g>
</g>
<g>
</g>
<g>
</g>
<g>
</g>
<g>
</g>
<g>
</g>
<g>
</g>
</svg>
