<?xml version="1.0" encoding="utf-8"?>
<!-- Generator: Adobe Illustrator 16.0.3, SVG Export Plug-In . SVG Version: 6.00 Build 0)  -->
<!DOCTYPE svg PUBLIC "-//W3C//DTD SVG 1.1//EN" "http://www.w3.org/Graphics/SVG/1.1/DTD/svg11.dtd">
<svg version="1.1" id="Ebene_1" xmlns="http://www.w3.org/2000/svg" xmlns:xlink="http://www.w3.org/1999/xlink" x="0px" y="0px"
	 width="152px" height="104px" viewBox="0 0 152 104" enable-background="new 0 0 152 104" xml:space="preserve">
<circle fill="#3E7A9D" cx="76.207" cy="16.675" r="12.317"/>
<path fill="#3E7A9D" d="M43.881,39.045c0,6.801-5.516,12.316-12.32,12.316c-6.798,0-12.313-5.516-12.313-12.316
	c0-6.805,5.516-12.32,12.313-12.32C38.366,26.725,43.881,32.24,43.881,39.045z"/>
<path fill="#3E7A9D" d="M44.562,98.999H58.21V66.01c0-4.09-3.317-7.406-7.407-7.406H11.815c-4.089,0-7.407,3.316-7.407,7.406v32.989
	H18.41"/>
<path fill="#3E7A9D" d="M133.467,39.045c0,6.801-5.516,12.316-12.32,12.316c-6.797,0-12.313-5.516-12.313-12.316
	c0-6.805,5.517-12.32,12.313-12.32C127.951,26.725,133.467,32.24,133.467,39.045z"/>
<path fill="#3E7A9D" d="M134.146,98.999h13.647V66.01c0-4.09-3.315-7.406-7.405-7.406H101.4c-4.09,0-7.407,3.316-7.407,7.406v32.989
	h14.005"/>
<path fill="#3E7A9D" d="M88.568,84.4V60.572c0-4.766,3.861-8.621,8.625-8.621h5.656v-8.31c0-4.09-3.314-7.407-7.404-7.407H56.457
	c-4.089,0-7.407,3.317-7.407,7.407v8.904h6.687c4.701,0,8.512,3.813,8.512,8.518v23.875"/>
</svg>
