<?xml version="1.0" encoding="utf-8"?>
<!-- Generator: Adobe Illustrator 16.0.3, SVG Export Plug-In . SVG Version: 6.00 Build 0)  -->
<!DOCTYPE svg PUBLIC "-//W3C//DTD SVG 1.1//EN" "http://www.w3.org/Graphics/SVG/1.1/DTD/svg11.dtd">
<svg version="1.1" id="Ebene_1" xmlns="http://www.w3.org/2000/svg" xmlns:xlink="http://www.w3.org/1999/xlink" x="0px" y="0px"
	 width="155.118px" height="155.118px" viewBox="0 0 155.118 155.118" enable-background="new 0 0 155.118 155.118"
	 xml:space="preserve">
<polyline fill="none" stroke="#3E7A9D" stroke-width="10" stroke-miterlimit="10" points="137.579,75.489 137.579,150.104 
	5.325,150.104 5.325,19.179 117.274,19.179 137.579,49.513 137.579,78.155 "/>
<polyline fill="none" stroke="#3E7A9D" stroke-width="10" stroke-miterlimit="10" points="19.237,20.934 19.237,4.267 
	126.187,4.267 151.491,42.601 151.491,63.243 "/>
<polyline fill="none" stroke="#3E7A9D" stroke-width="10" stroke-miterlimit="10" points="151.491,59.577 151.491,138.191 
	133.125,138.191 "/>
<g>
	<path fill="#3E7A9D" d="M89.68,65.442c0,2.744-0.49,5.187-1.471,7.327c-0.979,2.143-2.268,4.039-3.862,5.69
		c-1.568,1.596-3.374,3.094-5.417,4.492c-2.044,1.4-4.214,2.758-6.509,4.073v9.448h-7.517V83.667c1.819-1.035,3.786-2.168,5.899-3.4
		c2.114-1.23,3.843-2.478,5.187-3.737c1.623-1.455,2.883-2.96,3.779-4.515c0.896-1.553,1.344-3.533,1.344-5.941
		c0-3.163-1.071-5.521-3.212-7.076c-2.143-1.553-4.907-2.33-8.294-2.33c-3.023,0-5.886,0.477-8.587,1.428
		c-2.702,0.952-4.837,1.918-6.404,2.897h-0.42v-8.566c1.959-0.756,4.444-1.435,7.453-2.036c3.01-0.603,5.858-0.903,8.546-0.903
		c6.019,0,10.771,1.463,14.257,4.388C87.937,56.799,89.68,60.655,89.68,65.442z M73.093,113.271h-8.566v-8.86h8.566V113.271z"/>
</g>
</svg>
