<?xml version="1.0" encoding="utf-8"?>
<!-- Generator: Adobe Illustrator 16.0.3, SVG Export Plug-In . SVG Version: 6.00 Build 0)  -->
<!DOCTYPE svg PUBLIC "-//W3C//DTD SVG 1.1//EN" "http://www.w3.org/Graphics/SVG/1.1/DTD/svg11.dtd">
<svg version="1.1" id="Ebene_1" xmlns="http://www.w3.org/2000/svg" xmlns:xlink="http://www.w3.org/1999/xlink" x="0px" y="0px"
	 width="145.697px" height="112.523px" viewBox="0 0 145.697 112.523" enable-background="new 0 0 145.697 112.523"
	 xml:space="preserve">
<g>
	<rect y="3.646" width="33.366" height="13.992"/>
	<rect y="25.219" width="33.366" height="7.793"/>
	<rect y="40.592" width="33.366" height="50.004"/>
	<rect y="98.176" width="33.366" height="10.951"/>
</g>
<g>
	<rect x="44.372" y="25.219" width="25.034" height="50.847"/>
	<rect x="44.372" y="3.646" width="25.034" height="13.992"/>
	<rect x="44.372" y="83.646" width="25.034" height="6.95"/>
	<rect x="44.372" y="98.176" width="25.034" height="10.951"/>
</g>
<g>
	
		<rect x="79.767" y="37.317" transform="matrix(-0.2647 -0.9643 0.9643 -0.2647 86.5582 181.4521)" width="65.377" height="40.819"/>
	<rect x="119.09" y="81.43" transform="matrix(-0.2647 -0.9643 0.9643 -0.2647 59.3365 248.9211)" width="10.952" height="40.819"/>
	<rect x="92.947" y="-8.259" transform="matrix(0.2647 0.9643 -0.9643 0.2647 85.2043 -87.4446)" width="13.993" height="40.818"/>
</g>
<g>
</g>
<g>
</g>
<g>
</g>
<g>
</g>
<g>
</g>
<g>
</g>
</svg>
