<?xml version="1.0" encoding="utf-8"?>
<!-- Generator: Adobe Illustrator 16.0.3, SVG Export Plug-In . SVG Version: 6.00 Build 0)  -->
<!DOCTYPE svg PUBLIC "-//W3C//DTD SVG 1.1//EN" "http://www.w3.org/Graphics/SVG/1.1/DTD/svg11.dtd">
<svg version="1.1" id="Ebene_1" xmlns="http://www.w3.org/2000/svg" xmlns:xlink="http://www.w3.org/1999/xlink" x="0px" y="0px"
	 width="145.697px" height="112.523px" viewBox="0 0 145.697 112.523" enable-background="new 0 0 145.697 112.523"
	 xml:space="preserve">
<g>
	<rect x="0" y="3.646" fill="#3E7A9D" width="33.366" height="13.992"/>
	<rect x="0" y="25.219" fill="#3E7A9D" width="33.366" height="7.794"/>
	<rect x="0" y="40.592" fill="#3E7A9D" width="33.366" height="50.005"/>
	<rect x="0" y="98.176" fill="#3E7A9D" width="33.366" height="10.951"/>
</g>
<g>
	<rect x="44.372" y="25.219" fill="#3E7A9D" width="25.034" height="50.848"/>
	<rect x="44.372" y="3.646" fill="#3E7A9D" width="25.034" height="13.992"/>
	<rect x="44.372" y="83.646" fill="#3E7A9D" width="25.034" height="6.95"/>
	<rect x="44.372" y="98.176" fill="#3E7A9D" width="25.034" height="10.951"/>
</g>
<g>
	
		<rect x="79.769" y="37.323" transform="matrix(0.2647 0.9643 -0.9643 0.2647 138.3615 -65.9958)" fill="#3E7A9D" width="65.375" height="40.817"/>
	
		<rect x="119.092" y="81.436" transform="matrix(0.2647 0.9643 -0.9643 0.2647 189.8024 -45.2404)" fill="#3E7A9D" width="10.952" height="40.818"/>
	
		<rect x="92.946" y="-8.261" transform="matrix(-0.2647 -0.9643 0.9643 -0.2647 114.6852 111.7401)" fill="#3E7A9D" width="13.993" height="40.816"/>
</g>
</svg>
