<?xml version="1.0" encoding="utf-8"?>
<!-- Generator: Adobe Illustrator 16.0.3, SVG Export Plug-In . SVG Version: 6.00 Build 0)  -->
<!DOCTYPE svg PUBLIC "-//W3C//DTD SVG 1.1//EN" "http://www.w3.org/Graphics/SVG/1.1/DTD/svg11.dtd">
<svg version="1.1" id="Ebene_1" xmlns="http://www.w3.org/2000/svg" xmlns:xlink="http://www.w3.org/1999/xlink" x="0px" y="0px"
	 width="114px" height="110px" viewBox="0 0 114 110" enable-background="new 0 0 114 110" xml:space="preserve">
<g>
	<path fill="#3E7A9D" d="M2.463,62.135V49.358c2.59-0.142,4.542-0.532,5.855-1.171c1.313-0.64,2.449-1.712,3.407-3.221
		c0.958-1.509,1.614-3.398,1.97-5.67c0.284-1.703,0.426-4.666,0.426-8.891c0-6.885,0.319-11.686,0.958-14.399
		c0.639-2.715,1.792-4.897,3.46-6.548c1.668-1.65,4.099-2.955,7.293-3.913c2.164-0.639,5.571-0.958,10.221-0.958h2.821V17.31
		c-3.939,0-6.468,0.223-7.586,0.666c-1.118,0.444-1.943,1.117-2.476,2.022c-0.533,0.905-0.798,2.458-0.798,4.658
		c0,2.236-0.16,6.478-0.479,12.724c-0.178,3.513-0.639,6.361-1.384,8.544c-0.746,2.183-1.695,3.984-2.848,5.403
		c-1.154,1.42-2.919,2.893-5.297,4.418c2.094,1.207,3.806,2.618,5.137,4.231c1.331,1.615,2.351,3.576,3.061,5.883
		c0.709,2.309,1.171,5.396,1.384,9.264c0.248,5.893,0.373,9.652,0.373,11.286c0,2.342,0.284,3.974,0.852,4.897
		c0.567,0.922,1.428,1.623,2.582,2.103c1.153,0.479,3.646,0.719,7.479,0.719v12.776h-2.821c-4.792,0-8.465-0.383-11.02-1.146
		c-2.555-0.764-4.711-2.032-6.468-3.807c-1.757-1.775-2.937-3.966-3.54-6.574c-0.604-2.608-0.905-6.717-0.905-12.323
		c0-6.529-0.285-10.771-0.852-12.724c-0.781-2.839-1.961-4.871-3.541-6.097C8.149,63.014,5.728,62.313,2.463,62.135z"/>
	<path fill="#3E7A9D" d="M110.797,62.135c-2.592,0.143-4.545,0.532-5.857,1.172c-1.312,0.639-2.438,1.713-3.379,3.221
		c-0.94,1.509-1.606,3.397-1.996,5.67c-0.285,1.703-0.428,4.648-0.428,8.837c0,6.885-0.311,11.692-0.932,14.427
		c-0.621,2.732-1.766,4.924-3.434,6.574s-4.117,2.954-7.347,3.913c-2.163,0.639-5.571,0.958-10.221,0.958h-2.822V94.129
		c3.796,0,6.283-0.238,7.453-0.719c1.172-0.479,2.031-1.171,2.582-2.076c0.551-0.904,0.834-2.439,0.853-4.604
		c0.018-2.166,0.168-6.301,0.453-12.404c0.178-3.69,0.655-6.645,1.438-8.863c0.779-2.218,1.818-4.1,3.113-5.643
		c1.295-1.545,2.955-2.901,4.979-4.073c-2.627-1.703-4.543-3.371-5.75-5.004c-1.668-2.342-2.805-5.323-3.406-8.943
		c-0.391-2.483-0.676-7.949-0.852-16.396c-0.037-2.661-0.275-4.436-0.719-5.323c-0.445-0.887-1.244-1.57-2.396-2.05
		c-1.154-0.479-3.736-0.719-7.746-0.719V4.588h2.822c4.791,0,8.465,0.372,11.02,1.118c2.555,0.745,4.701,2.015,6.441,3.806
		c1.738,1.793,2.918,3.993,3.539,6.602c0.621,2.609,0.932,6.717,0.932,12.323c0,6.495,0.268,10.736,0.799,12.724
		c0.781,2.84,1.972,4.871,3.568,6.096c1.596,1.224,4.027,1.925,7.293,2.103V62.135z"/>
</g>
</svg>
