<?xml version="1.0" encoding="utf-8"?>
<!-- Generator: Adobe Illustrator 16.0.3, SVG Export Plug-In . SVG Version: 6.00 Build 0)  -->
<!DOCTYPE svg PUBLIC "-//W3C//DTD SVG 1.1//EN" "http://www.w3.org/Graphics/SVG/1.1/DTD/svg11.dtd">
<svg version="1.1" id="Ebene_1" xmlns="http://www.w3.org/2000/svg" xmlns:xlink="http://www.w3.org/1999/xlink" x="0px" y="0px"
	 width="114px" height="110px" viewBox="0 0 114 110" enable-background="new 0 0 114 110" xml:space="preserve">
<g>
	<path d="M2.463,62.135V49.358c2.59-0.142,4.542-0.532,5.855-1.171c1.313-0.64,2.449-1.712,3.407-3.221
		c0.958-1.509,1.614-3.398,1.97-5.67c0.284-1.703,0.426-4.666,0.426-8.891c0-6.885,0.319-11.685,0.958-14.399
		c0.639-2.715,1.792-4.897,3.46-6.548c1.668-1.65,4.099-2.955,7.293-3.913c2.164-0.639,5.571-0.958,10.221-0.958h2.821v12.723
		c-3.939,0-6.468,0.223-7.586,0.666c-1.118,0.444-1.943,1.117-2.476,2.022s-0.798,2.458-0.798,4.658
		c0,2.236-0.16,6.478-0.479,12.724c-0.178,3.513-0.639,6.361-1.384,8.544c-0.746,2.183-1.695,3.984-2.848,5.403
		c-1.154,1.42-2.919,2.893-5.297,4.418c2.094,1.207,3.806,2.618,5.137,4.232c1.331,1.615,2.351,3.576,3.061,5.883
		c0.709,2.308,1.171,5.395,1.384,9.263c0.248,5.892,0.373,9.653,0.373,11.286c0,2.342,0.284,3.974,0.852,4.897
		c0.567,0.922,1.428,1.623,2.582,2.103c1.153,0.479,3.646,0.719,7.479,0.719v12.776h-2.821c-4.792,0-8.465-0.382-11.02-1.145
		c-2.555-0.764-4.711-2.032-6.468-3.807s-2.937-3.966-3.54-6.574c-0.604-2.608-0.905-6.717-0.905-12.324
		c0-6.529-0.285-10.771-0.852-12.723c-0.781-2.839-1.961-4.871-3.541-6.096C8.149,63.013,5.728,62.313,2.463,62.135z"/>
	<path d="M110.797,62.135c-2.592,0.143-4.545,0.532-5.857,1.171s-2.439,1.713-3.379,3.221c-0.941,1.509-1.607,3.398-1.996,5.67
		c-0.285,1.703-0.428,4.649-0.428,8.837c0,6.885-0.311,11.693-0.932,14.427c-0.621,2.732-1.766,4.924-3.434,6.574
		s-4.117,2.954-7.346,3.913c-2.164,0.639-5.572,0.958-10.221,0.958h-2.822V94.129c3.796,0,6.283-0.239,7.453-0.719
		c1.172-0.479,2.031-1.171,2.582-2.076s0.834-2.44,0.852-4.604c0.018-2.165,0.168-6.3,0.453-12.404
		c0.178-3.69,0.656-6.645,1.438-8.863c0.779-2.218,1.818-4.1,3.113-5.643c1.295-1.544,2.955-2.901,4.979-4.073
		c-2.627-1.703-4.543-3.371-5.75-5.004c-1.668-2.342-2.805-5.323-3.406-8.943c-0.391-2.483-0.676-7.949-0.852-16.396
		c-0.037-2.661-0.275-4.436-0.719-5.323c-0.445-0.887-1.244-1.57-2.396-2.05c-1.154-0.479-3.736-0.719-7.746-0.719V4.588h2.822
		c4.791,0,8.465,0.372,11.02,1.118c2.555,0.745,4.701,2.015,6.441,3.806c1.738,1.793,2.918,3.993,3.539,6.602
		s0.932,6.717,0.932,12.323c0,6.495,0.268,10.736,0.799,12.724c0.781,2.84,1.971,4.871,3.568,6.096
		c1.596,1.224,4.027,1.925,7.293,2.103V62.135z"/>
</g>
<image overflow="visible" width="144" height="145" xlink:href="951212B9.jpg"  transform="matrix(1 0 0 1 -155 -248.6099)">
</image>
<path d="M148.433-106.769H8.262V-248.61H148.1L148.433-106.769z M18.321-116.831H138.34l-0.279-121.714H18.321V-116.831z"/>
<rect x="57.708" y="-157.417" width="45.108" height="10.066"/>
<rect x="56.843" y="-194.401" width="10.066" height="45.112"/>
<rect x="50.224" y="-217.263" fill="#010202" width="24.476" height="27.279"/>
<rect x="84.089" y="-167.743" fill="#010202" width="24.477" height="27.275"/>
</svg>
