<?xml version="1.0" encoding="utf-8"?>
<!-- Generator: Adobe Illustrator 16.0.3, SVG Export Plug-In . SVG Version: 6.00 Build 0)  -->
<!DOCTYPE svg PUBLIC "-//W3C//DTD SVG 1.1//EN" "http://www.w3.org/Graphics/SVG/1.1/DTD/svg11.dtd">
<svg version="1.1" id="Ebene_1" xmlns="http://www.w3.org/2000/svg" xmlns:xlink="http://www.w3.org/1999/xlink" x="0px" y="0px"
	 width="136.688px" height="146.236px" viewBox="0 0 136.688 146.236" enable-background="new 0 0 136.688 146.236"
	 xml:space="preserve">
<ellipse fill="#3E7A9D" cx="68.529" cy="99.132" rx="9.001" ry="9.678"/>
<path fill="#3E7A9D" d="M88.002,146.236v-25.917c0-3.216-2.424-5.82-5.414-5.82H54.099c-2.989,0-5.412,2.604-5.412,5.82v25.917
	H88.002z"/>
<ellipse fill="#3E7A9D" cx="19.842" cy="54.881" rx="9.001" ry="9.677"/>
<path fill="#3E7A9D" d="M39.315,101.985V76.068c0-3.215-2.424-5.82-5.414-5.82H5.413c-2.99,0-5.413,2.605-5.413,5.82v25.917H39.315z
	"/>
<ellipse fill="#3E7A9D" cx="69.267" cy="9.678" rx="9" ry="9.676"/>
<path fill="#3E7A9D" d="M88.739,56.78V30.863c0-3.214-2.424-5.82-5.412-5.82H54.837c-2.989,0-5.412,2.605-5.412,5.82V56.78H88.739z"
	/>
<ellipse fill="#3E7A9D" cx="117.217" cy="54.881" rx="9.001" ry="9.677"/>
<path fill="#3E7A9D" d="M136.688,101.985V76.068c0-3.215-2.423-5.82-5.413-5.82h-28.487c-2.99,0-5.413,2.605-5.413,5.82v25.917
	H136.688z"/>
</svg>
