<?xml version="1.0" encoding="utf-8"?>
<!-- Generator: Adobe Illustrator 16.0.3, SVG Export Plug-In . SVG Version: 6.00 Build 0)  -->
<!DOCTYPE svg PUBLIC "-//W3C//DTD SVG 1.1//EN" "http://www.w3.org/Graphics/SVG/1.1/DTD/svg11.dtd">
<svg version="1.1" id="Ebene_1" xmlns="http://www.w3.org/2000/svg" xmlns:xlink="http://www.w3.org/1999/xlink" x="0px" y="0px"
	 width="136.441px" height="125.502px" viewBox="0 0 136.441 125.502" enable-background="new 0 0 136.441 125.502"
	 xml:space="preserve">
<polygon fill="#010202" points="33.71,64.424 37.224,83.369 51.199,70.106 42.905,87.498 62.006,84.983 45.077,94.177 
	62.006,103.371 42.905,100.856 51.199,118.246 37.224,104.985 33.71,123.928 30.197,104.985 16.222,118.246 24.519,100.856 
	5.415,103.371 22.346,94.177 5.415,84.983 24.519,87.498 16.222,70.106 30.197,83.369 "/>
<polygon fill="#010202" points="103.173,64.424 106.688,83.369 120.658,70.106 112.365,87.498 131.469,84.983 114.538,94.177 
	131.469,103.371 112.365,100.856 120.658,118.246 106.688,104.985 103.173,123.928 99.66,104.985 85.686,118.246 93.979,100.856 
	74.879,103.371 91.805,94.177 74.879,84.983 93.979,87.498 85.686,70.106 99.66,83.369 "/>
<polygon fill="#010202" points="63.657,4.773 67.168,23.718 81.142,10.453 72.85,27.845 91.953,25.332 75.021,34.525 91.953,43.719 
	72.85,41.207 81.142,58.594 67.168,45.333 63.657,64.276 60.145,45.333 46.169,58.594 54.462,41.207 35.358,43.719 52.289,34.525 
	35.358,25.332 54.462,27.845 46.169,10.453 60.145,23.718 "/>
</svg>
