<?xml version="1.0" encoding="utf-8"?>
<!-- Generator: Adobe Illustrator 16.0.3, SVG Export Plug-In . SVG Version: 6.00 Build 0)  -->
<!DOCTYPE svg PUBLIC "-//W3C//DTD SVG 1.1//EN" "http://www.w3.org/Graphics/SVG/1.1/DTD/svg11.dtd">
<svg version="1.1" id="Ebene_1" xmlns="http://www.w3.org/2000/svg" xmlns:xlink="http://www.w3.org/1999/xlink" x="0px" y="0px"
	 width="138.161px" height="137.195px" viewBox="0 0 138.161 137.195" enable-background="new 0 0 138.161 137.195"
	 xml:space="preserve">
<g>
	<path fill="#3E7A9D" d="M74.913,137.195c-3.859,0-7.72,0-11.579,0c-2.049-2.209-2.586-5.119-3.596-7.81
		c-1.99-5.297-8.289-7.041-12.738-3.5c-0.215,0.173-0.429,0.347-0.627,0.537c-6.899,6.654-7.225,4.939-15.232,0.252
		c-1.646-0.963-1.957-2.563-1.714-4.313c0.227-1.635,0.613-3.244,0.901-4.869c1.209-6.834-3.436-11.492-10.248-10.285
		c-0.271,0.049-0.539,0.107-0.811,0.16c-6.988,1.305-10.732-1.201-12.334-8.164c-0.375-1.635,0.061-2.986,1.004-4.25
		c1.071-1.434,2.326-2.715,3.424-4.131c3.941-5.082,2.414-10.729-3.599-13.207c-7.751-3.193-7.604-3.197-7.762-11.592
		c-0.06-3.162,0.958-4.958,3.978-5.728c1.197-0.305,2.32-0.859,3.471-1.316c6.686-2.672,8.053-8.303,3.35-13.828
		c-0.98-1.153-1.83-2.412-2.83-3.55c-1.569-1.779-1.758-3.678-0.575-5.694c5.204-8.882,3.259-8.434,12.777-6.54
		c3.692,0.734,6.343,0.085,8.78-2.749c1.479-1.722,2.246-3.393,1.666-5.611c-0.174-0.663-0.279-1.348-0.396-2.024
		c-1.347-7.847-0.032-10.103,7.495-13.098c1.401-0.558,2.652-0.597,3.881,0.324c1.543,1.156,3.091,2.304,4.548,3.564
		c5.462,4.739,11.183,3.308,13.958-3.312c1.015-2.422,0.863-5.577,3.84-6.945c3.387-0.021,6.771-0.007,10.15-0.008
		c3.228,0.771,3.282,3.834,4.188,6.124c2.926,7.392,8.139,8.92,14.338,4.024C93.704,8.802,94.729,7.88,95.79,7
		c1.793-1.48,3.722-1.639,5.783-0.632c0.619,0.302,1.207,0.663,1.805,1.005c6.209,3.546,6.252,3.552,5.017,10.612
		c-0.584,3.339-0.988,6.346,2.062,9.053c2.271,2.019,4.389,3.198,7.381,2.38c0.396-0.108,0.817-0.123,1.227-0.191
		c7.932-1.336,9.285-0.535,12.283,6.959c0.748,1.873,0.434,3.469-0.592,5.082c-1.043,1.64-2.418,3.004-3.631,4.5
		c-3.98,4.919-2.207,10.918,3.731,13.181c2.69,1.027,6.197,0.929,7.31,4.56c0.006,3.39,0.01,6.775-0.002,10.156
		c-1.349,2.703-4.232,2.808-6.568,3.688c-7.021,2.651-8.676,8.475-3.818,14.032c0.908,1.035,1.699,2.164,2.572,3.226
		c1.691,2.053,1.873,4.17,0.586,6.492c-0.869,1.565-1.809,3.086-2.729,4.619c-1.107,1.854-2.668,2.69-4.849,2.301
		c-1.625-0.289-3.269-0.472-4.894-0.767c-7.092-1.295-11.274,2.836-10.198,10.035c0.185,1.226,0.424,2.439,0.629,3.66
		c0.512,3.045-0.383,5.396-3.209,6.918c-1.453,0.781-2.929,1.531-4.338,2.389c-1.937,1.179-3.642,0.877-5.261-0.602
		c-1.221-1.113-2.543-2.105-3.825-3.143c-5.585-4.521-11.457-2.886-13.791,3.834C77.62,132.798,77.097,135.431,74.913,137.195z"/>
	<path fill="#B5B4B4" d="M74.913-0.918c-0.01,0.29-0.019,0.581-0.026,0.872C71.058-0.031,67.23-0.016,63.402,0
		c-0.022-0.307-0.045-0.61-0.068-0.918C67.193-0.918,71.052-0.918,74.913-0.918z"/>
	<path fill="#E6E6E5" d="M138.592,74.339c-0.313-0.014-0.622-0.03-0.936-0.049c0.041-3.846,0.08-7.688,0.121-11.535
		c0.271-0.006,0.543-0.004,0.814,0.009C138.592,66.621,138.592,70.482,138.592,74.339z"/>
	<path fill="#FFFFFF" d="M69.204,25.078c24.397,0.035,44.3,20.063,44.216,44.5c-0.08,24.375-20.166,44.23-44.614,44.103
		c-24.174-0.132-43.968-20.05-43.982-44.263C24.808,45.005,44.787,25.047,69.204,25.078z"/>
</g>
<g>
	<path fill="#3E7A9D" d="M39.806,71.25c0-3.325,0.497-6.115,1.491-8.371c0.742-1.662,1.755-3.152,3.039-4.475
		c1.284-1.321,2.69-2.3,4.219-2.939c2.033-0.859,4.378-1.291,7.035-1.291c4.809,0,8.656,1.492,11.543,4.476
		c2.887,2.982,4.331,7.132,4.331,12.444c0,5.27-1.433,9.392-4.296,12.367c-2.865,2.977-6.694,4.464-11.488,4.464
		c-4.853,0-8.712-1.479-11.576-4.44C41.238,80.523,39.806,76.445,39.806,71.25z M46.596,71.028c0,3.695,0.854,6.497,2.561,8.404
		c1.706,1.906,3.873,2.86,6.501,2.86c2.627,0,4.782-0.945,6.467-2.839c1.685-1.892,2.527-4.73,2.527-8.516
		c0-3.74-0.82-6.53-2.461-8.371c-1.64-1.84-3.817-2.761-6.533-2.761c-2.717,0-4.906,0.932-6.568,2.794
		C47.427,64.464,46.596,67.273,46.596,71.028z"/>
	<path fill="#3E7A9D" d="M74.937,76.75l6.412-0.624c0.386,2.152,1.168,3.733,2.349,4.742c1.18,1.01,2.771,1.514,4.775,1.514
		c2.122,0,3.721-0.448,4.797-1.347c1.076-0.896,1.613-1.948,1.613-3.15c0-0.771-0.227-1.428-0.678-1.97
		c-0.453-0.542-1.244-1.013-2.371-1.414c-0.771-0.268-2.53-0.742-5.276-1.425c-3.532-0.875-6.011-1.951-7.437-3.228
		c-2.004-1.796-3.006-3.985-3.006-6.567c0-1.662,0.473-3.217,1.414-4.664c0.942-1.447,2.301-2.549,4.074-3.306
		s3.914-1.136,6.423-1.136c4.097,0,7.181,0.898,9.25,2.694c2.07,1.796,3.157,4.193,3.263,7.191l-6.59,0.29
		c-0.283-1.678-0.889-2.884-1.814-3.618c-0.928-0.734-2.319-1.103-4.176-1.103c-1.914,0-3.412,0.394-4.496,1.181
		c-0.697,0.505-1.047,1.18-1.047,2.025c0,0.772,0.326,1.434,0.979,1.981c0.831,0.698,2.851,1.425,6.056,2.182
		c3.207,0.757,5.576,1.54,7.112,2.35s2.737,1.915,3.606,3.316c0.869,1.402,1.303,3.136,1.303,5.198c0,1.87-0.52,3.622-1.559,5.254
		c-1.039,1.633-2.509,2.846-4.408,3.64s-4.268,1.191-7.103,1.191c-4.126,0-7.295-0.953-9.506-2.86
		C76.688,83.18,75.368,80.4,74.937,76.75z"/>
</g>
</svg>
