<?xml version="1.0" encoding="utf-8"?>
<!-- Generator: Adobe Illustrator 16.0.3, SVG Export Plug-In . SVG Version: 6.00 Build 0)  -->
<!DOCTYPE svg PUBLIC "-//W3C//DTD SVG 1.1//EN" "http://www.w3.org/Graphics/SVG/1.1/DTD/svg11.dtd">
<svg version="1.1" id="Ebene_1" xmlns="http://www.w3.org/2000/svg" xmlns:xlink="http://www.w3.org/1999/xlink" x="0px" y="0px"
	 width="138.161px" height="137.195px" viewBox="0 0 138.161 137.195" enable-background="new 0 0 138.161 137.195"
	 xml:space="preserve">
<g>
	<path fill-rule="evenodd" clip-rule="evenodd" fill="#030407" d="M74.912,137.195c-3.859,0-7.719,0-11.578,0
		c-2.049-2.209-2.586-5.119-3.596-7.809c-1.99-5.297-8.289-7.041-12.738-3.5c-0.215,0.172-0.429,0.346-0.627,0.537
		c-6.899,6.654-7.225,4.939-15.232,0.252c-1.646-0.963-1.957-2.564-1.714-4.314c0.227-1.635,0.613-3.244,0.901-4.869
		c1.209-6.834-3.436-11.492-10.248-10.285c-0.271,0.049-0.539,0.107-0.811,0.16c-6.988,1.305-10.732-1.201-12.334-8.164
		c-0.375-1.635,0.061-2.986,1.004-4.25c1.071-1.434,2.326-2.715,3.424-4.131c3.941-5.082,2.414-10.729-3.599-13.207
		c-7.751-3.193-7.604-3.197-7.762-11.592c-0.06-3.162,0.958-4.958,3.978-5.727c1.197-0.305,2.32-0.86,3.471-1.317
		c6.686-2.672,8.053-8.302,3.35-13.828c-0.98-1.153-1.83-2.412-2.83-3.55c-1.569-1.779-1.758-3.677-0.575-5.694
		c5.204-8.882,3.259-8.434,12.777-6.54c3.692,0.734,6.343,0.085,8.78-2.749c1.479-1.722,2.246-3.393,1.666-5.611
		c-0.174-0.663-0.279-1.348-0.396-2.025c-1.347-7.846-0.032-10.102,7.495-13.097c1.401-0.558,2.652-0.597,3.881,0.324
		c1.543,1.156,3.091,2.303,4.548,3.564c5.462,4.739,11.183,3.308,13.958-3.311c1.015-2.422,0.863-5.577,3.84-6.946
		c3.387-0.021,6.771-0.006,10.15-0.007c3.228,0.771,3.282,3.834,4.189,6.124c2.926,7.391,8.139,8.92,14.337,4.024
		C93.704,8.802,94.729,7.88,95.79,7c1.793-1.481,3.721-1.639,5.783-0.632c0.619,0.302,1.207,0.663,1.805,1.005
		c6.209,3.546,6.252,3.552,5.016,10.612c-0.584,3.339-0.988,6.346,2.061,9.053c2.271,2.018,4.389,3.198,7.381,2.38
		c0.396-0.109,0.818-0.123,1.227-0.192c7.932-1.336,9.285-0.535,12.283,6.959c0.748,1.873,0.434,3.469-0.592,5.082
		c-1.043,1.64-2.418,3.004-3.631,4.5c-3.98,4.919-2.207,10.918,3.732,13.181c2.691,1.027,6.197,0.929,7.309,4.56
		c0.006,3.389,0.01,6.775-0.002,10.156c-1.348,2.703-4.232,2.807-6.568,3.688c-7.021,2.652-8.676,8.475-3.818,14.033
		c0.908,1.035,1.699,2.164,2.572,3.225c1.691,2.053,1.873,4.17,0.586,6.492c-0.869,1.566-1.809,3.086-2.729,4.619
		c-1.107,1.854-2.668,2.691-4.848,2.301c-1.625-0.289-3.268-0.471-4.893-0.766c-7.092-1.295-11.275,2.836-10.199,10.035
		c0.184,1.225,0.424,2.439,0.629,3.66c0.512,3.045-0.383,5.396-3.209,6.918c-1.453,0.781-2.928,1.531-4.338,2.389
		c-1.936,1.178-3.641,0.877-5.26-0.602c-1.221-1.113-2.543-2.105-3.826-3.143c-5.585-4.52-11.457-2.885-13.791,3.834
		C77.62,132.798,77.097,135.431,74.912,137.195z"/>
	<path fill-rule="evenodd" clip-rule="evenodd" fill="#B5B4B4" d="M74.912-0.918c-0.009,0.29-0.018,0.581-0.026,0.872
		C71.058-0.031,67.23-0.016,63.402,0c-0.022-0.307-0.045-0.611-0.068-0.918C67.193-0.918,71.052-0.918,74.912-0.918z"/>
	<path fill-rule="evenodd" clip-rule="evenodd" fill="#E6E6E5" d="M138.593,74.339c-0.313-0.014-0.623-0.031-0.936-0.049
		c0.041-3.846,0.08-7.689,0.121-11.535c0.271-0.006,0.543-0.004,0.814,0.008C138.593,66.621,138.593,70.482,138.593,74.339z"/>
	<path fill-rule="evenodd" clip-rule="evenodd" fill="#FFFFFF" d="M69.204,25.078c24.397,0.035,44.301,20.063,44.217,44.5
		c-0.08,24.375-20.166,44.23-44.615,44.102c-24.174-0.131-43.968-20.049-43.982-44.262C24.808,45.005,44.787,25.047,69.204,25.078z"
		/>
</g>
<g opacity="0.6">
	<path fill="#010202" d="M39.806,71.25c0-3.325,0.497-6.115,1.491-8.371c0.742-1.662,1.755-3.153,3.039-4.475
		c1.284-1.321,2.69-2.3,4.219-2.939c2.033-0.86,4.378-1.291,7.035-1.291c4.809,0,8.656,1.492,11.543,4.475
		c2.887,2.983,4.33,7.132,4.33,12.445c0,5.269-1.432,9.391-4.296,12.367c-2.865,2.976-6.694,4.464-11.488,4.464
		c-4.853,0-8.712-1.48-11.576-4.441C41.238,80.523,39.806,76.445,39.806,71.25z M46.596,71.028c0,3.695,0.854,6.497,2.561,8.404
		c1.706,1.907,3.873,2.861,6.501,2.861c2.627,0,4.782-0.946,6.467-2.839c1.685-1.892,2.527-4.731,2.527-8.516
		c0-3.74-0.82-6.53-2.461-8.371c-1.64-1.84-3.817-2.761-6.533-2.761c-2.717,0-4.906,0.932-6.568,2.794
		C47.427,64.464,46.596,67.273,46.596,71.028z"/>
	<path fill="#010202" d="M74.937,76.75l6.412-0.624c0.386,2.152,1.168,3.733,2.349,4.742c1.18,1.01,2.771,1.514,4.775,1.514
		c2.122,0,3.721-0.449,4.797-1.347c1.076-0.897,1.614-1.948,1.614-3.15c0-0.771-0.227-1.428-0.679-1.97
		c-0.453-0.542-1.243-1.013-2.371-1.414c-0.771-0.268-2.53-0.742-5.276-1.425c-3.532-0.875-6.011-1.951-7.436-3.228
		c-2.004-1.795-3.006-3.985-3.006-6.567c0-1.662,0.472-3.217,1.414-4.664s2.3-2.549,4.074-3.306
		c1.773-0.757,3.914-1.135,6.423-1.135c4.096,0,7.18,0.898,9.25,2.694s3.157,4.193,3.262,7.191l-6.59,0.29
		c-0.282-1.677-0.888-2.883-1.814-3.618c-0.928-0.734-2.319-1.102-4.175-1.102c-1.914,0-3.413,0.393-4.497,1.18
		c-0.697,0.505-1.046,1.18-1.046,2.026c0,0.772,0.326,1.433,0.979,1.981c0.831,0.698,2.85,1.425,6.056,2.182s5.576,1.54,7.112,2.349
		c1.536,0.81,2.738,1.915,3.607,3.317c0.868,1.402,1.302,3.136,1.302,5.198c0,1.87-0.52,3.622-1.559,5.254
		c-1.039,1.633-2.508,2.846-4.407,3.64c-1.9,0.794-4.268,1.191-7.103,1.191c-4.126,0-7.295-0.953-9.506-2.86
		C76.688,83.18,75.368,80.4,74.937,76.75z"/>
</g>
<g>
</g>
<g>
</g>
<g>
</g>
<g>
</g>
<g>
</g>
<g>
</g>
</svg>
