<?xml version="1.0" encoding="utf-8"?>
<!-- Generator: Adobe Illustrator 16.0.3, SVG Export Plug-In . SVG Version: 6.00 Build 0)  -->
<!DOCTYPE svg PUBLIC "-//W3C//DTD SVG 1.1//EN" "http://www.w3.org/Graphics/SVG/1.1/DTD/svg11.dtd">
<svg version="1.1" id="Ebene_1" xmlns="http://www.w3.org/2000/svg" xmlns:xlink="http://www.w3.org/1999/xlink" x="0px" y="0px"
	 width="141.578px" height="135.083px" viewBox="0 0 141.578 135.083" enable-background="new 0 0 141.578 135.083"
	 xml:space="preserve">
<circle fill="#3E7A9D" cx="70.891" cy="12.922" r="12.162"/>
<circle fill="#3E7A9D" cx="26.811" cy="35.01" r="12.162"/>
<path fill="#3E7A9D" d="M53.122,61.637c0-4.041-3.274-7.314-7.314-7.314H7.313C3.274,54.322,0,57.596,0,61.637v32.574h13.826
	l5.772,40.113h14.277l5.771-40.113h13.476V61.637z"/>
<circle fill="#3E7A9D" cx="115.268" cy="35.01" r="12.162"/>
<path fill="#3E7A9D" d="M141.578,61.637c0-4.041-3.273-7.314-7.313-7.314H95.771c-4.041,0-7.314,3.273-7.314,7.314v32.574h13.826
	l5.771,40.113h14.275l5.771-40.113h13.476L141.578,61.637L141.578,61.637z"/>
<path fill="#3E7A9D" d="M83.098,56.267c0-4.703,3.813-8.515,8.516-8.515h5.589v-8.203c0-4.038-3.274-7.314-7.313-7.314H51.394
	c-4.041,0-7.314,3.276-7.314,7.314v8.793h6.599c4.644,0,8.407,3.765,8.407,8.408v23.577l4.59,31.912h14.279l5.143-35.748V56.267z"/>
</svg>
