<?xml version="1.0" encoding="utf-8"?>
<!-- Generator: Adobe Illustrator 16.0.3, SVG Export Plug-In . SVG Version: 6.00 Build 0)  -->
<!DOCTYPE svg PUBLIC "-//W3C//DTD SVG 1.1//EN" "http://www.w3.org/Graphics/SVG/1.1/DTD/svg11.dtd">
<svg version="1.1" id="Ebene_1" xmlns="http://www.w3.org/2000/svg" xmlns:xlink="http://www.w3.org/1999/xlink" x="0px" y="0px"
	 width="146px" height="127px" viewBox="0 0 146 127" enable-background="new 0 0 146 127" xml:space="preserve">
<path fill="#3E7A9D" d="M67.578,67.333H2.646V5.332h64.933L67.578,67.333L67.578,67.333z M8.845,61.136h52.536V11.529H8.845V61.136z
	"/>
<rect x="5.745" y="10.031" fill="#3E7A9D" width="61.355" height="18.595"/>
<rect x="55.015" y="15.792" fill="#3E7A9D" width="44.854" height="7.077"/>
<rect x="92.791" y="17.056" fill="#3E7A9D" width="7.077" height="58.447"/>
<path fill="#3E7A9D" d="M143,124.104H78.07V62.105H143V124.104z M84.268,117.91h52.535V68.303H84.268V117.91z"/>
<rect x="81.166" y="66.8" fill="#3E7A9D" width="61.354" height="18.603"/>
<g>
	<polygon fill="#3E7A9D" points="25.197,8.032 21.476,8.032 21.476,42.56 5.745,42.56 5.745,46.28 21.476,46.28 21.476,64.631 
		25.197,64.631 25.197,46.28 62.341,46.28 62.341,42.56 25.197,42.56 	"/>
	<polygon fill="#3E7A9D" points="100.617,99.334 100.617,64.807 96.9,64.807 96.9,99.334 81.166,99.334 81.166,103.048 
		96.9,103.048 96.9,121.4 100.617,121.4 100.617,103.048 137.764,103.048 137.764,99.334 	"/>
</g>
</svg>
