<?xml version="1.0" encoding="utf-8"?>
<!-- Generator: Adobe Illustrator 16.0.3, SVG Export Plug-In . SVG Version: 6.00 Build 0)  -->
<!DOCTYPE svg PUBLIC "-//W3C//DTD SVG 1.1//EN" "http://www.w3.org/Graphics/SVG/1.1/DTD/svg11.dtd">
<svg version="1.1" id="Ebene_1" xmlns="http://www.w3.org/2000/svg" xmlns:xlink="http://www.w3.org/1999/xlink" x="0px" y="0px"
	 width="146px" height="127px" viewBox="0 0 146 127" enable-background="new 0 0 146 127" xml:space="preserve">
<path fill="#010202" d="M67.578,67.333H2.646V5.332h64.933L67.578,67.333L67.578,67.333z M8.845,61.136h52.536V11.529H8.845V61.136z
	"/>
<rect x="5.745" y="10.031" fill="#010202" width="61.355" height="18.595"/>
<rect x="55.015" y="15.792" fill="#010202" width="44.854" height="7.077"/>
<rect x="92.791" y="17.056" fill="#010202" width="7.077" height="58.447"/>
<g>
	<line fill="none" x1="62.341" y1="44.419" x2="5.745" y2="44.419"/>
	<rect x="5.745" y="42.56" fill="#010202" width="56.596" height="3.72"/>
</g>
<g>
	<line fill="none" x1="23.336" y1="64.631" x2="23.336" y2="8.032"/>
	<rect x="21.476" y="8.032" fill="#010202" width="3.721" height="56.599"/>
</g>
<path fill="#010202" d="M143,124.104H78.07V62.105H143V124.104z M84.268,117.91h52.535V68.303H84.268V117.91z"/>
<rect x="81.166" y="66.8" fill="#010202" width="61.354" height="18.603"/>
<g>
	<line fill="none" x1="137.764" y1="101.193" x2="81.166" y2="101.193"/>
	<rect x="81.166" y="99.334" fill="#010202" width="56.598" height="3.714"/>
</g>
<g>
	<line fill="none" x1="98.758" y1="121.398" x2="98.758" y2="64.807"/>
	<rect x="96.9" y="64.807" fill="#010202" width="3.717" height="56.594"/>
</g>
</svg>
