<?xml version="1.0" encoding="utf-8"?>
<!-- Generator: Adobe Illustrator 16.0.3, SVG Export Plug-In . SVG Version: 6.00 Build 0)  -->
<!DOCTYPE svg PUBLIC "-//W3C//DTD SVG 1.1//EN" "http://www.w3.org/Graphics/SVG/1.1/DTD/svg11.dtd">
<svg version="1.1" id="Ebene_1" xmlns="http://www.w3.org/2000/svg" xmlns:xlink="http://www.w3.org/1999/xlink" x="0px" y="0px"
	 width="162px" height="65px" viewBox="0 0 162 65" enable-background="new 0 0 162 65" xml:space="preserve">
<path fill="#3E7A9D" d="M63.619,32.987c0,16.535-13.403,29.933-29.934,29.933c-16.527,0-29.932-13.398-29.932-29.933
	c0-16.527,13.404-29.933,29.932-29.933C50.216,3.055,63.619,16.46,63.619,32.987z"/>
<path fill="#FFFFFF" d="M40.606,32.987c0,3.822-3.098,6.92-6.921,6.92c-3.817,0-6.914-3.099-6.914-6.92
	c0-3.817,3.097-6.914,6.914-6.914C37.509,26.073,40.606,29.17,40.606,32.987z"/>
<polygon fill="#3E7A9D" points="42.373,21.25 151.098,21.25 159.38,31.649 144.211,47.152 131.621,37.148 119.398,46.802 
	109.975,34.199 98.559,47.152 86.904,38.04 75.968,47.152 61.265,47.152 42.373,47.152 "/>
</svg>
