<?xml version="1.0" encoding="utf-8"?>
<!-- Generator: Adobe Illustrator 16.0.3, SVG Export Plug-In . SVG Version: 6.00 Build 0)  -->
<!DOCTYPE svg PUBLIC "-//W3C//DTD SVG 1.1//EN" "http://www.w3.org/Graphics/SVG/1.1/DTD/svg11.dtd">
<svg version="1.1" id="Ebene_1" xmlns="http://www.w3.org/2000/svg" xmlns:xlink="http://www.w3.org/1999/xlink" x="0px" y="0px"
	 width="194.861px" height="97.093px" viewBox="0 0 194.861 97.093" enable-background="new 0 0 194.861 97.093"
	 xml:space="preserve">
<g>
	<rect x="4.199" y="24.599" fill="#FFFFFF" width="186.463" height="68.296"/>
	<path d="M194.861,97.093H0V20.399h194.861V97.093z M8.397,88.695h178.066V28.797H8.397V88.695z"/>
</g>
<g opacity="0.6">
	<path fill="#010202" d="M88.226,60.768l5.384-0.523c0.324,1.807,0.981,3.135,1.973,3.981c0.991,0.848,2.327,1.271,4.01,1.271
		c1.782,0,3.125-0.377,4.029-1.131c0.903-0.754,1.355-1.636,1.355-2.646c0-0.647-0.19-1.199-0.57-1.654
		c-0.38-0.455-1.044-0.851-1.991-1.188c-0.648-0.224-2.125-0.623-4.431-1.196c-2.966-0.735-5.047-1.639-6.244-2.71
		c-1.683-1.508-2.524-3.347-2.524-5.516c0-1.396,0.396-2.701,1.187-3.916s1.932-2.141,3.421-2.776
		c1.489-0.636,3.287-0.953,5.393-0.953c3.44,0,6.029,0.754,7.768,2.262c1.739,1.509,2.651,3.521,2.739,6.038l-5.534,0.243
		c-0.237-1.408-0.745-2.421-1.523-3.037c-0.779-0.617-1.947-0.926-3.505-0.926c-1.607,0-2.867,0.33-3.776,0.991
		c-0.586,0.424-0.879,0.99-0.879,1.701c0,0.647,0.274,1.202,0.823,1.663c0.698,0.586,2.393,1.196,5.085,1.832
		c2.692,0.636,4.683,1.293,5.973,1.973s2.299,1.607,3.028,2.785s1.094,2.633,1.094,4.365c0,1.57-0.437,3.041-1.309,4.412
		c-0.873,1.371-2.106,2.39-3.702,3.057c-1.595,0.666-3.583,1-5.963,1c-3.465,0-6.125-0.801-7.982-2.402S88.587,63.833,88.226,60.768
		z"/>
	<path fill="#010202" d="M115.183,69.685V42.278h11.646c2.929,0,5.057,0.247,6.384,0.739c1.327,0.492,2.39,1.367,3.187,2.626
		s1.197,2.698,1.197,4.318c0,2.057-0.605,3.755-1.813,5.095c-1.209,1.34-3.016,2.184-5.421,2.533
		c1.196,0.697,2.184,1.464,2.963,2.299s1.829,2.318,3.15,4.449l3.347,5.347h-6.618l-4-5.964c-1.42-2.131-2.393-3.474-2.916-4.028
		s-1.078-0.935-1.664-1.141c-0.586-0.205-1.514-0.308-2.785-0.308h-1.122v11.44H115.183z M120.716,53.869h4.094
		c2.655,0,4.312-0.112,4.973-0.336c0.661-0.225,1.178-0.611,1.552-1.159c0.374-0.549,0.561-1.234,0.561-2.057
		c0-0.922-0.246-1.667-0.738-2.234c-0.492-0.566-1.187-0.925-2.084-1.074c-0.449-0.063-1.794-0.094-4.038-0.094h-4.319V53.869z"/>
	<path fill="#010202" d="M149.113,69.685l-9.795-27.406h6l6.936,20.284l6.711-20.284h5.87l-9.814,27.406H149.113z"/>
</g>
<rect x="24.539" y="41.146" fill="#010202" width="8.258" height="32.436"/>
<rect x="43.103" y="41.146" fill="#010202" width="8.258" height="32.436"/>
<rect x="62.28" y="41.146" fill="#010202" width="8.258" height="32.436"/>
<polygon points="189.975,27.808 165.008,8.397 33.953,8.397 5.774,26.688 0.362,19.646 31.466,0 167.888,0 195.128,21.179 "/>
<g>
</g>
<g>
</g>
<g>
</g>
<g>
</g>
<g>
</g>
<g>
</g>
</svg>
