<?xml version="1.0" encoding="utf-8"?>
<!-- Generator: Adobe Illustrator 16.0.3, SVG Export Plug-In . SVG Version: 6.00 Build 0)  -->
<!DOCTYPE svg PUBLIC "-//W3C//DTD SVG 1.1//EN" "http://www.w3.org/Graphics/SVG/1.1/DTD/svg11.dtd">
<svg version="1.1" id="Ebene_1" xmlns="http://www.w3.org/2000/svg" xmlns:xlink="http://www.w3.org/1999/xlink" x="0px" y="0px"
	 width="194.861px" height="97.093px" viewBox="0 0 194.861 97.093" enable-background="new 0 0 194.861 97.093"
	 xml:space="preserve">
<g>
	<rect x="4.199" y="24.599" fill="#FFFFFF" width="186.463" height="68.296"/>
	<path fill="#3E7A9D" d="M194.861,97.093H0V20.399h194.861V97.093z M8.397,88.695h178.065V28.797H8.397V88.695z"/>
</g>
<g>
	<path fill="#3E7A9D" d="M88.226,60.768l5.384-0.522c0.324,1.807,0.98,3.135,1.973,3.98c0.991,0.848,2.327,1.271,4.01,1.271
		c1.782,0,3.125-0.377,4.029-1.131c0.903-0.755,1.355-1.637,1.355-2.646c0-0.646-0.19-1.199-0.57-1.654s-1.044-0.852-1.991-1.188
		c-0.647-0.225-2.125-0.623-4.431-1.196c-2.966-0.735-5.047-1.64-6.244-2.71c-1.683-1.508-2.524-3.348-2.524-5.516
		c0-1.396,0.396-2.702,1.188-3.917s1.932-2.141,3.421-2.776c1.489-0.636,3.287-0.953,5.393-0.953c3.44,0,6.029,0.754,7.769,2.262
		c1.739,1.509,2.651,3.521,2.739,6.038l-5.534,0.243c-0.237-1.408-0.745-2.421-1.523-3.037c-0.778-0.617-1.946-0.926-3.505-0.926
		c-1.606,0-2.867,0.33-3.775,0.991c-0.587,0.424-0.88,0.99-0.88,1.702c0,0.646,0.274,1.201,0.823,1.662
		c0.698,0.586,2.394,1.196,5.085,1.832c2.692,0.637,4.684,1.293,5.974,1.973c1.29,0.681,2.299,1.607,3.027,2.785
		c0.729,1.179,1.095,2.633,1.095,4.365c0,1.57-0.438,3.041-1.31,4.412c-0.873,1.371-2.105,2.391-3.702,3.057
		c-1.595,0.666-3.583,1-5.963,1c-3.465,0-6.125-0.801-7.981-2.401C89.698,66.167,88.587,63.833,88.226,60.768z"/>
	<path fill="#3E7A9D" d="M115.183,69.685V42.278h11.646c2.929,0,5.058,0.247,6.384,0.739c1.327,0.492,2.391,1.367,3.188,2.626
		c0.797,1.259,1.197,2.698,1.197,4.317c0,2.058-0.605,3.756-1.813,5.096c-1.209,1.34-3.016,2.184-5.421,2.533
		c1.196,0.697,2.184,1.463,2.963,2.299c0.779,0.835,1.829,2.318,3.15,4.449l3.347,5.347h-6.618l-4-5.964
		c-1.42-2.131-2.393-3.475-2.916-4.028c-0.522-0.554-1.078-0.935-1.664-1.142c-0.586-0.204-1.514-0.307-2.785-0.307h-1.122v11.439
		h-5.534V69.685z M120.716,53.869h4.095c2.654,0,4.312-0.111,4.973-0.336s1.178-0.611,1.552-1.158
		c0.374-0.549,0.562-1.234,0.562-2.058c0-0.922-0.246-1.667-0.738-2.234c-0.492-0.566-1.187-0.925-2.084-1.074
		c-0.449-0.063-1.794-0.094-4.038-0.094h-4.319L120.716,53.869L120.716,53.869z"/>
	<path fill="#3E7A9D" d="M149.113,69.685l-9.795-27.406h6l6.936,20.284l6.711-20.284h5.87l-9.813,27.406H149.113z"/>
</g>
<rect x="24.539" y="41.146" fill="#3E7A9D" width="8.258" height="32.436"/>
<rect x="43.103" y="41.146" fill="#3E7A9D" width="8.258" height="32.436"/>
<rect x="62.28" y="41.146" fill="#3E7A9D" width="8.258" height="32.436"/>
<polygon fill="#3E7A9D" points="189.975,27.808 165.008,8.397 33.953,8.397 5.774,26.688 0.362,19.646 31.466,0 167.888,0 
	195.128,21.179 "/>
</svg>
