<?xml version="1.0" encoding="utf-8"?>
<!-- Generator: Adobe Illustrator 16.0.3, SVG Export Plug-In . SVG Version: 6.00 Build 0)  -->
<!DOCTYPE svg PUBLIC "-//W3C//DTD SVG 1.1//EN" "http://www.w3.org/Graphics/SVG/1.1/DTD/svg11.dtd">
<svg version="1.1" id="Ebene_1" xmlns="http://www.w3.org/2000/svg" xmlns:xlink="http://www.w3.org/1999/xlink" x="0px" y="0px"
	 width="173px" height="119px" viewBox="0 0 173 119" enable-background="new 0 0 173 119" xml:space="preserve">
<g>
	<g>
		<rect x="66.061" y="53.477" width="70.882" height="12.821"/>
		<g>
			<polygon points="127.551,84.277 169.702,59.887 127.551,35.496 			"/>
		</g>
	</g>
</g>
<path d="M103.251,74.379c-6.076,18.012-23.101,31.045-43.128,31.045c-25.11,0-45.537-20.432-45.537-45.537
	c0-25.11,20.427-45.534,45.537-45.534c20.613,0,38.057,13.785,43.641,32.623h11.51C109.398,21.924,86.93,3.191,60.123,3.191
	c-31.268,0-56.697,25.437-56.697,56.695c0,31.259,25.43,56.691,56.697,56.691c26.245,0,48.313-17.953,54.743-42.199L103.251,74.379
	L103.251,74.379z"/>
</svg>
