<?xml version="1.0" encoding="utf-8"?>
<!-- Generator: Adobe Illustrator 16.0.3, SVG Export Plug-In . SVG Version: 6.00 Build 0)  -->
<!DOCTYPE svg PUBLIC "-//W3C//DTD SVG 1.1//EN" "http://www.w3.org/Graphics/SVG/1.1/DTD/svg11.dtd">
<svg version="1.1" id="Ebene_1" xmlns="http://www.w3.org/2000/svg" xmlns:xlink="http://www.w3.org/1999/xlink" x="0px" y="0px"
	 width="146.887px" height="146px" viewBox="0 0 146.887 146" enable-background="new 0 0 146.887 146" xml:space="preserve">
<path fill="#010202" d="M48.12,79.121c0,11.784-9.552,21.336-21.338,21.336c-11.785,0-21.337-9.552-21.337-21.336
	c0-11.787,9.553-21.339,21.337-21.339C38.567,57.782,48.12,67.334,48.12,79.121z"/>
<circle fill="#010202" cx="120.021" cy="26.098" r="21.336"/>
<path fill="#010202" d="M140.916,119.764c0,11.788-9.552,21.342-21.337,21.342s-21.335-9.554-21.335-21.342
	c0-11.781,9.55-21.334,21.335-21.334S140.916,107.982,140.916,119.764z"/>
<path fill="#010202" d="M118.64,28.33c1.992,3.571,0.716,8.082-2.855,10.078L33.805,84.204c-3.567,1.995-8.078,0.719-10.074-2.851
	l0,0c-1.996-3.571-0.716-8.085,2.852-10.076l81.98-45.799C112.133,23.483,116.646,24.763,118.64,28.33L118.64,28.33z"/>
<path fill="#010202" d="M123.04,123.302c-1.721,3.716-6.124,5.327-9.832,3.609L28.003,87.438c-3.71-1.718-5.327-6.117-3.608-9.83
	l0,0c1.72-3.711,6.121-5.324,9.831-3.606l85.208,39.472C123.144,115.188,124.758,119.595,123.04,123.302L123.04,123.302z"/>
</svg>
