<?xml version="1.0" encoding="utf-8"?>
<!-- Generator: Adobe Illustrator 16.0.3, SVG Export Plug-In . SVG Version: 6.00 Build 0)  -->
<!DOCTYPE svg PUBLIC "-//W3C//DTD SVG 1.1//EN" "http://www.w3.org/Graphics/SVG/1.1/DTD/svg11.dtd">
<svg version="1.1" id="Ebene_1" xmlns="http://www.w3.org/2000/svg" xmlns:xlink="http://www.w3.org/1999/xlink" x="0px" y="0px"
	 width="138.593px" height="138.113px" viewBox="0 0 138.593 138.113" enable-background="new 0 0 138.593 138.113"
	 xml:space="preserve">
<g>
	<path fill="#3E7A9D" d="M74.912,138.113c-3.858,0-7.719,0-11.578,0c-2.049-2.211-2.586-5.12-3.596-7.809
		c-1.99-5.299-8.289-7.043-12.738-3.502c-0.215,0.172-0.429,0.346-0.627,0.537c-6.899,6.655-7.225,4.94-15.232,0.253
		c-1.646-0.963-1.957-2.565-1.714-4.313c0.227-1.637,0.613-3.245,0.901-4.87c1.209-6.834-3.436-11.492-10.248-10.284
		c-0.271,0.049-0.539,0.105-0.811,0.159c-6.988,1.305-10.732-1.201-12.334-8.163c-0.375-1.637,0.061-2.987,1.004-4.25
		c1.071-1.434,2.326-2.717,3.424-4.132c3.941-5.081,2.414-10.729-3.599-13.206C0.013,75.34,0.16,75.336,0.002,66.941
		c-0.06-3.162,0.958-4.959,3.978-5.728c1.197-0.305,2.32-0.86,3.471-1.317c6.686-2.672,8.053-8.302,3.35-13.828
		c-0.98-1.153-1.83-2.412-2.83-3.55c-1.569-1.779-1.758-3.677-0.575-5.694c5.204-8.882,3.259-8.434,12.777-6.54
		c3.692,0.734,6.343,0.085,8.78-2.749c1.479-1.722,2.246-3.393,1.666-5.611c-0.174-0.663-0.279-1.348-0.396-2.025
		c-1.347-7.846-0.032-10.102,7.495-13.097c1.401-0.558,2.652-0.597,3.881,0.324c1.543,1.156,3.091,2.303,4.548,3.564
		c5.462,4.739,11.183,3.308,13.958-3.311c1.015-2.422,0.863-5.577,3.84-6.946c3.387-0.021,6.771-0.006,10.15-0.007
		c3.228,0.771,3.281,3.834,4.189,6.124c2.926,7.391,8.139,8.92,14.338,4.024c1.082-0.855,2.106-1.777,3.168-2.657
		c1.793-1.481,3.721-1.639,5.782-0.632c0.619,0.302,1.206,0.663,1.806,1.005c6.209,3.546,6.252,3.552,5.016,10.612
		c-0.585,3.339-0.989,6.346,2.061,9.053c2.271,2.018,4.39,3.198,7.381,2.38c0.396-0.109,0.817-0.123,1.227-0.192
		c7.934-1.336,9.286-0.535,12.284,6.959c0.748,1.873,0.434,3.469-0.593,5.082c-1.043,1.64-2.418,3.004-3.631,4.5
		c-3.979,4.919-2.207,10.918,3.732,13.181c2.691,1.027,6.197,0.929,7.309,4.56c0.006,3.39,0.01,6.775-0.002,10.156
		c-1.348,2.704-4.231,2.808-6.567,3.688c-7.021,2.651-8.677,8.475-3.818,14.032c0.907,1.036,1.699,2.164,2.572,3.226
		c1.69,2.053,1.872,4.17,0.585,6.492c-0.868,1.565-1.809,3.086-2.729,4.619c-1.106,1.854-2.668,2.69-4.848,2.301
		c-1.625-0.289-3.268-0.471-4.893-0.767c-7.092-1.294-11.276,2.837-10.199,10.035c0.184,1.226,0.424,2.438,0.629,3.66
		c0.511,3.045-0.384,5.397-3.209,6.918c-1.453,0.78-2.928,1.532-4.338,2.389c-1.936,1.179-3.643,0.877-5.26-0.601
		c-1.221-1.113-2.543-2.105-3.827-3.143c-5.585-4.521-11.456-2.887-13.79,3.832C77.621,133.717,77.097,136.35,74.912,138.113z"/>
	<path fill="#B5B4B4" d="M74.912,0c-0.009,0.29-0.018,0.581-0.025,0.872c-3.827,0.015-7.655,0.03-11.483,0.046
		C63.379,0.611,63.357,0.307,63.333,0C67.193,0,71.052,0,74.912,0z"/>
	<path fill="#E6E6E5" d="M138.593,75.258c-0.313-0.015-0.623-0.031-0.936-0.05c0.039-3.847,0.079-7.689,0.12-11.534
		c0.271-0.007,0.542-0.004,0.813,0.007C138.593,67.539,138.593,71.398,138.593,75.258z"/>
	<path fill="#FFFFFF" d="M69.204,25.996c24.396,0.035,44.301,20.063,44.217,44.5c-0.08,24.375-20.166,44.229-44.614,44.102
		c-24.174-0.131-43.968-20.05-43.982-44.263C24.808,45.923,44.787,25.965,69.204,25.996z"/>
</g>
<polygon fill="#3E7A9D" points="43.227,70.793 63.672,92.238 95.367,54.543 89.117,49.349 62.62,80.793 48.62,66.793 "/>
</svg>
