<?xml version="1.0" encoding="utf-8"?>
<!-- Generator: Adobe Illustrator 16.0.3, SVG Export Plug-In . SVG Version: 6.00 Build 0)  -->
<!DOCTYPE svg PUBLIC "-//W3C//DTD SVG 1.1//EN" "http://www.w3.org/Graphics/SVG/1.1/DTD/svg11.dtd">
<svg version="1.1" id="Ebene_1" xmlns="http://www.w3.org/2000/svg" xmlns:xlink="http://www.w3.org/1999/xlink" x="0px" y="0px"
	 width="179.331px" height="107.718px" viewBox="0 0 179.331 107.718" enable-background="new 0 0 179.331 107.718"
	 xml:space="preserve">
<circle cx="25.907" cy="11.752" r="11.752"/>
<path d="M51.331,68.957V37.481c0-3.903-3.164-7.067-7.067-7.067H7.067C3.164,30.414,0,33.578,0,37.481v31.476H51.331z"/>
<polygon points="32.732,107.718 18.937,107.718 11.498,56.016 40.172,56.016 "/>
<circle cx="153.908" cy="11.752" r="11.752"/>
<path d="M179.331,68.957V37.481c0-3.903-3.164-7.067-7.067-7.067h-37.195c-3.904,0-7.068,3.164-7.068,7.067v31.476H179.331z"/>
<polygon points="160.732,107.718 146.938,107.718 139.498,56.016 168.172,56.016 "/>
<circle cx="89.576" cy="11.752" r="11.752"/>
<path d="M115,68.957V37.481c0-3.903-3.164-7.067-7.068-7.067H70.736c-3.903,0-7.067,3.164-7.067,7.067v31.476H115z"/>
<polygon points="96.401,107.718 82.605,107.718 75.167,56.016 103.841,56.016 "/>
<g>
</g>
<g>
</g>
<g>
</g>
<g>
</g>
<g>
</g>
<g>
</g>
</svg>
