<?xml version="1.0" encoding="utf-8"?>
<!-- Generator: Adobe Illustrator 16.0.3, SVG Export Plug-In . SVG Version: 6.00 Build 0)  -->
<!DOCTYPE svg PUBLIC "-//W3C//DTD SVG 1.1//EN" "http://www.w3.org/Graphics/SVG/1.1/DTD/svg11.dtd">
<svg version="1.1" id="Ebene_1" xmlns="http://www.w3.org/2000/svg" xmlns:xlink="http://www.w3.org/1999/xlink" x="0px" y="0px"
	 width="156px" height="122px" viewBox="0 0 156 122" enable-background="new 0 0 156 122" xml:space="preserve">
<path fill="#010202" d="M152.846,117.624H5.691V5.435h147.155V117.624z M13.798,109.521h130.945V13.538H13.798V109.521z"/>
<rect x="9.746" y="11.58" fill="#010202" width="142.479" height="24.314"/>
<g>
	<line fill="none" x1="148.479" y1="56.415" x2="12.75" y2="56.415"/>
	<rect x="12.75" y="53.987" fill="#010202" width="135.729" height="4.862"/>
</g>
<g>
	<line fill="none" x1="148.479" y1="83.643" x2="12.75" y2="83.643"/>
	<rect x="12.75" y="81.214" fill="#010202" width="135.729" height="4.854"/>
</g>
<g>
	<line fill="none" x1="78.6" y1="113.359" x2="78.6" y2="20.004"/>
	<rect x="76.167" y="20.004" fill="#010202" width="4.862" height="93.355"/>
</g>
<g>
	<line fill="none" x1="112.154" y1="113.359" x2="112.154" y2="20.004"/>
	<rect x="109.729" y="20.004" fill="#010202" width="4.855" height="93.355"/>
</g>
<g>
	<line fill="none" x1="43.128" y1="113.359" x2="43.128" y2="20.004"/>
	<rect x="40.696" y="20.004" fill="#010202" width="4.862" height="93.355"/>
</g>
</svg>
