<?xml version="1.0" encoding="utf-8"?>
<!-- Generator: Adobe Illustrator 16.0.3, SVG Export Plug-In . SVG Version: 6.00 Build 0)  -->
<!DOCTYPE svg PUBLIC "-//W3C//DTD SVG 1.1//EN" "http://www.w3.org/Graphics/SVG/1.1/DTD/svg11.dtd">
<svg version="1.1" id="Ebene_1" xmlns="http://www.w3.org/2000/svg" xmlns:xlink="http://www.w3.org/1999/xlink" x="0px" y="0px"
	 width="138.91px" height="93.334px" viewBox="0 0 138.91 93.334" enable-background="new 0 0 138.91 93.334" xml:space="preserve">
<g>
	<rect x="28.128" y="21.992" fill="#3E7A9D" width="10" height="5.602"/>
	<rect x="28.128" y="10.788" fill="#3E7A9D" width="10" height="5.976"/>
	<rect x="28.128" y="0.001" fill="#3E7A9D" width="10" height="5.559"/>
	<polygon fill="#3E7A9D" points="60.315,52.187 38.128,76.056 38.128,32.822 28.128,32.822 28.128,76.069 5.933,52.187 0,57.712 
		33.12,93.335 66.248,57.712 	"/>
</g>
<g>
	<rect x="100.782" y="76.517" fill="#3E7A9D" width="10" height="5.603"/>
	<rect x="100.782" y="65.313" fill="#3E7A9D" width="10" height="5.976"/>
	<polygon fill="#3E7A9D" points="105.79,0 72.662,35.623 78.596,41.148 100.782,17.279 100.782,60.084 110.782,60.084 
		110.782,17.265 132.979,41.148 138.91,35.623 	"/>
	<rect x="100.782" y="87.347" fill="#3E7A9D" width="10" height="5.987"/>
</g>
</svg>
